<?xml version="1.0" encoding="UTF-8" standalone="no"?>
<!-- Created with Inkscape (http://www.inkscape.org/) -->

<svg
   xmlns:dc="http://purl.org/dc/elements/1.1/"
   xmlns:cc="http://creativecommons.org/ns#"
   xmlns:rdf="http://www.w3.org/1999/02/22-rdf-syntax-ns#"
   xmlns:svg="http://www.w3.org/2000/svg"
   xmlns="http://www.w3.org/2000/svg"
   xmlns:xlink="http://www.w3.org/1999/xlink"
   xmlns:sodipodi="http://sodipodi.sourceforge.net/DTD/sodipodi-0.dtd"
   xmlns:inkscape="http://www.inkscape.org/namespaces/inkscape"
   width="800"
   height="600"
   id="svg2"
   version="1.1"
   inkscape:version="0.48.5 r10040"
   sodipodi:docname="empty-doing.svg">
  <defs
     id="defs4">
    <linearGradient
       gradientTransform="translate(-55.999998,-41.999999)"
       y2="478.67245"
       x2="460.32837"
       y1="717.32635"
       x1="5.0199924"
       gradientUnits="userSpaceOnUse"
       id="linearGradient3703"
       xlink:href="#linearGradient3672"
       inkscape:collect="always" />
    <radialGradient
       gradientUnits="userSpaceOnUse"
       gradientTransform="matrix(0.4652369,-1.1736488,1.4525679,0.57580105,-749.35778,697.01167)"
       r="94.57553"
       fy="583.12659"
       fx="359.7536"
       cy="583.12659"
       cx="359.7536"
       id="radialGradient3701"
       xlink:href="#linearGradient3695"
       inkscape:collect="always" />
    <radialGradient
       gradientUnits="userSpaceOnUse"
       gradientTransform="matrix(0.67584265,-0.68384845,0.04345491,0.04294618,86.126207,849.13697)"
       r="125.1542"
       fy="326.24411"
       fx="345.85254"
       cy="326.24411"
       cx="345.85254"
       id="radialGradient3690"
       xlink:href="#linearGradient3682"
       inkscape:collect="always" />
    <linearGradient
       gradientUnits="userSpaceOnUse"
       y2="478.67245"
       x2="460.32837"
       y1="717.32635"
       x1="5.0199924"
       id="linearGradient3678"
       xlink:href="#linearGradient3672"
       inkscape:collect="always" />
    <inkscape:perspective
       sodipodi:type="inkscape:persp3d"
       inkscape:vp_x="0 : 0.5 : 1"
       inkscape:vp_y="0 : 1000 : 0"
       inkscape:vp_z="1 : 0.5 : 1"
       inkscape:persp3d-origin="0.5 : 0.33333333 : 1"
       id="perspective2891" />
    <inkscape:perspective
       sodipodi:type="inkscape:persp3d"
       inkscape:vp_x="0 : 0.5 : 1"
       inkscape:vp_y="0 : 1000 : 0"
       inkscape:vp_z="1 : 0.5 : 1"
       inkscape:persp3d-origin="0.5 : 0.33333333 : 1"
       id="perspective3800" />
    <inkscape:perspective
       sodipodi:type="inkscape:persp3d"
       inkscape:vp_x="0 : 0.5 : 1"
       inkscape:vp_y="0 : 1000 : 0"
       inkscape:vp_z="1 : 0.5 : 1"
       inkscape:persp3d-origin="0.5 : 0.33333333 : 1"
       id="perspective3676" />
    <inkscape:perspective
       sodipodi:type="inkscape:persp3d"
       inkscape:vp_x="0 : 0.5 : 1"
       inkscape:vp_y="0 : 1000 : 0"
       inkscape:vp_z="1 : 0.5 : 1"
       inkscape:persp3d-origin="0.5 : 0.33333333 : 1"
       id="perspective3654" />
    <inkscape:perspective
       sodipodi:type="inkscape:persp3d"
       inkscape:vp_x="0 : 0.5 : 1"
       inkscape:vp_y="0 : 1000 : 0"
       inkscape:vp_z="1 : 0.5 : 1"
       inkscape:persp3d-origin="0.5 : 0.33333333 : 1"
       id="perspective3626" />
    <inkscape:perspective
       sodipodi:type="inkscape:persp3d"
       inkscape:vp_x="0 : 0.5 : 1"
       inkscape:vp_y="0 : 1000 : 0"
       inkscape:vp_z="1 : 0.5 : 1"
       inkscape:persp3d-origin="0.5 : 0.33333333 : 1"
       id="perspective3604" />
    <inkscape:perspective
       sodipodi:type="inkscape:persp3d"
       inkscape:vp_x="0 : 0.5 : 1"
       inkscape:vp_y="0 : 1000 : 0"
       inkscape:vp_z="1 : 0.5 : 1"
       inkscape:persp3d-origin="0.5 : 0.33333333 : 1"
       id="perspective2922" />
    <inkscape:perspective
       id="perspective10"
       inkscape:persp3d-origin="372.04724 : 350.78739 : 1"
       inkscape:vp_z="744.09448 : 526.18109 : 1"
       inkscape:vp_y="0 : 1000 : 0"
       inkscape:vp_x="0 : 526.18109 : 1"
       sodipodi:type="inkscape:persp3d" />
    <linearGradient
       id="linearGradient3672"
       inkscape:collect="always">
      <stop
         id="stop3674"
         offset="0"
         style="stop-color:#757575;stop-opacity:1;" />
      <stop
         id="stop3676"
         offset="1"
         style="stop-color:#757575;stop-opacity:0;" />
    </linearGradient>
    <linearGradient
       id="linearGradient3682"
       inkscape:collect="always">
      <stop
         id="stop3684"
         offset="0"
         style="stop-color:#ffffff;stop-opacity:1;" />
      <stop
         id="stop3686"
         offset="1"
         style="stop-color:#ffffff;stop-opacity:0;" />
    </linearGradient>
    <linearGradient
       id="linearGradient3695">
      <stop
         id="stop3697"
         offset="0"
         style="stop-color:#545454;stop-opacity:1;" />
      <stop
         id="stop3699"
         offset="1"
         style="stop-color:#ffffff;stop-opacity:0;" />
    </linearGradient>
  </defs>
  <sodipodi:namedview
     id="base"
     pagecolor="#ffffff"
     bordercolor="#666666"
     borderopacity="1.0"
     inkscape:pageopacity="0.0"
     inkscape:pageshadow="2"
     inkscape:zoom="1"
     inkscape:cx="597.71429"
     inkscape:cy="223.748"
     inkscape:document-units="px"
     inkscape:current-layer="layer1"
     showgrid="false"
     inkscape:showpageshadow="false"
     borderlayer="true"
     inkscape:window-width="1366"
     inkscape:window-height="744"
     inkscape:window-x="0"
     inkscape:window-y="24"
     inkscape:window-maximized="1" />
  <metadata
     id="metadata7">
    <rdf:RDF>
      <cc:Work
         rdf:about="">
        <dc:format>image/svg+xml</dc:format>
        <dc:type
           rdf:resource="http://purl.org/dc/dcmitype/StillImage" />
        <dc:title />
      </cc:Work>
    </rdf:RDF>
  </metadata>
  <g
     inkscape:label="Layer 1"
     inkscape:groupmode="layer"
     id="layer1"
     transform="translate(0,-452.36218)">
    <path
       inkscape:connector-curvature="0"
       id="path160"
       style="fill:#231f20;fill-opacity:1;fill-rule:nonzero;stroke:none"
       d="m -59.18326,1432.9132 c 0.45125,-1.01 2.60875,-0.3112 3.0925,-1.2887 -1.11625,-7.88 -2.8775,-22.1275 -5.41125,-31.435 -9.27625,8.4487 -15.91125,25.025 -14.6875,41.9987 0.26875,3.715 1.62125,8.9875 4.38125,11.5963 3.1875,-7.5475 8.695,-12.7763 13.65625,-18.5525 -0.86,-0.2038 -1.4925,-1.5988 -1.03125,-2.3188 z m 5.66875,28.3425 c -0.48375,-6.8387 -1.69625,-13.9775 -1.545,-21.3862 -4.9075,3.5975 -8.33125,8.675 -11.59625,13.915 1.2025,1.7487 -0.25625,3.145 -1.28875,4.1225 4.3175,1.675 9.24375,3.3062 14.43,3.3487 z m 3.60875,-62.6112 c -0.9025,-2.4713 -6.53875,-2.75 -8.24625,-0.775 2.845,-0.7925 5.9375,0.1825 8.24625,0.775 z m 3.3475,62.0962 c 7.36625,-1.395 12.9275,-4.595 17.00625,-9.2762 -7.09625,-4.07 -13.92375,-8.4063 -21.12875,-12.3675 0.345,6.6137 1.0425,12.8737 1.5475,19.325 1.3525,0.2787 2.0075,1.2562 2.575,2.3187 z m 18.81125,-12.8825 c -0.28,-0.3762 1.10625,-1.2675 0.7725,-1.5475 0,0.14 -0.20375,0.2913 -0.25875,0 1.48375,-6.215 0.74125,-14.665 -1.545,-20.6137 -2.2325,-5.8175 -6.2275,-12.6888 -10.04875,-16.4888 -0.37625,-0.3762 -1.1375,-1.4612 -1.80375,-1.0312 0.15,1.2775 0.79375,2.8987 0,4.38 -6.2375,1.5125 -4.07875,-4.1975 -5.15375,-7.4713 -1.1275,-3.4462 -5.0125,-3.8337 -10.04875,-4.1237 -0.645,3.1362 2.29625,4.0575 2.57625,5.41 -0.63375,0.2262 -1.78125,-0.064 -1.8025,0.7737 1.5225,10.35 2.64125,16.03 3.60625,26.54 7.945,4.6813 15.525,9.7263 23.70625,14.1725 z m 13.91375,10.5638 c -4.25125,1.4387 -8.41625,-2.8025 -11.8525,-4.6375 -4.47625,5.7 -12.06875,8.9312 -20.09875,10.3062 0.0637,2.47 -0.12875,4.68 -0.77375,6.4413 -3.67125,1.4175 -5.8075,-2.405 -6.18375,-5.9263 -11.07875,-0.043 -20.44,-3.6712 -25.25,-11.8525 0.16125,-0.5587 -0.73,-0.8162 0.2575,-0.7737 -1.98625,-1.8675 -2.35125,-6.3763 -2.835,-8.5013 -0.0962,-0.6025 0.2375,-1.1712 0.2575,-1.805 0.1175,-3.285 -1.0425,-7.4512 0.5175,-9.2762 -0.9575,-3.7788 1.31875,-10.6275 2.3175,-13.655 3.14625,-9.5338 8.61125,-21.6225 18.29375,-25.2538 4.5325,-1.695 10.53375,0.8288 12.8825,3.0938 1.41875,1.3637 1.955,3.2 3.35125,4.895 2.03875,2.48 4.67,3.0287 7.215,5.4112 3.1875,2.985 6.45125,8.45 9.0175,13.6563 4.14375,8.4075 6.61375,20.2162 2.835,29.8887 3.3275,2.685 7.6975,4.3275 10.04875,7.9888" />
    <g
       id="g3445"
       transform="translate(402.85714,588.57143)">
      <path
         d="m -432.04326,618.57395 c 0.215,3.7475 -2.92,8.87 -4.63875,12.36875 -1.93125,3.94 -3.48875,7.02125 -6.4425,10.3075 -7.9425,8.84625 -20.29,14.4725 -34.26875,10.56375 -13.32375,-3.715 -18.61625,-15.51375 -21.90125,-30.6625 0.74125,-1.105 3.2525,-1.37375 4.895,-0.77375 2.63,15.15 8.83625,27.24875 22.16,28.85875 11.16625,1.3525 24.415,-5.30375 30.1475,-16.48875 3.3175,-6.47625 6.7525,-12.155 3.60625,-18.29625 -0.9225,0.0225 -0.2775,1.61 -1.545,1.29 -2.395,-1.25625 -2.845,-3.0825 -3.09375,-6.185 4.295,-3.425 10.78,3.68375 11.08125,9.0175"
         style="fill:#231f20;fill-opacity:1;fill-rule:nonzero;stroke:none"
         id="path162"
         inkscape:connector-curvature="0" />
      <path
         d="m -457.03576,594.09645 c 2.06,-3.93875 0.61125,-11.44375 -2.5775,-13.65625 -0.77375,2.9425 -4.3275,0.9125 -5.155,-0.25875 -2.79,2.85625 -3.24125,6.52875 -4.37875,10.8225 0.0538,4.1775 3.33875,6.1625 6.6975,5.9275 1.60125,-0.1075 2.6,-1.16 2.83625,-1.29 0.88,-0.4825 2.03,-0.505 2.5775,-1.545 z m 3.605,-13.39875 c 2.96375,4.97125 2.49125,14.7075 -1.28625,17.5225 -2.16,1.61 -5.53,2.7475 -9.535,2.31875 -7.85875,-0.84875 -10.4575,-6.475 -8.50375,-13.915 0.1625,-0.6225 0.0437,-1.88875 0.77375,-3.0925 -1.15875,0.215 -1.235,1.515 -2.57625,1.54625 -0.1925,-0.8475 0.38625,-4.0575 0.51625,-5.15375 3.745,-6.66625 16.85375,-5.52875 20.61125,0.77375"
         style="fill:#231f20;fill-opacity:1;fill-rule:nonzero;stroke:none"
         id="path164"
         inkscape:connector-curvature="0" />
      <path
         d="m -473.01326,618.57395 c 0.91375,-4.15375 8.17,-0.85625 4.63875,2.5775 -1.8575,0 -3.6175,-1.03125 -4.63875,-2.5775"
         style="fill:#231f20;fill-opacity:1;fill-rule:nonzero;stroke:none"
         id="path166"
         inkscape:connector-curvature="0" />
      <path
         d="m -481.25701,588.6852 c -0.29,-1.94375 -1.36375,-3.1025 -2.83625,-3.865 -0.815,3.0175 -5.345,2.47 -5.925,-0.2575 -0.345,1.03125 -0.9875,1.76125 -1.2875,2.835 1.8775,2.76 6.82625,1.61 10.04875,1.2875 z m -8.24625,12.62625 c 4.94875,0.81625 9.5225,-5.23875 8.76125,-10.56625 -3.22,1.3 -8.385,1.63375 -11.85375,0.25875 -0.43875,3.95125 -1.2225,9.59875 3.0925,10.3075 z m 6.18375,-20.09875 c 5.44375,1.7175 9.1575,9.845 6.7,15.71875 -3.1575,7.5475 -19.315,12.23875 -20.8725,0.515 -0.4375,-3.3075 1.04125,-6.47375 1.29,-9.53375 0.10625,-1.375 -0.49375,-2.24375 -0.25875,-3.0925 0.3225,-1.17 1.62125,-1.4375 2.835,-2.83375 0.89125,-1.03125 1.03,-2.405 1.8025,-3.0925 2.43875,-2.17875 6.035,-1.76 8.24625,-0.2575 0.1725,0.6125 0.515,2.395 0.2575,2.57625"
         style="fill:#231f20;fill-opacity:1;fill-rule:nonzero;stroke:none"
         id="path168"
         inkscape:connector-curvature="0" />
    </g>
    <path
       inkscape:connector-curvature="0"
       id="path170"
       style="fill:#231f20;fill-opacity:1;fill-rule:nonzero;stroke:none"
       d="m 97.107896,503.9053 c 1.040314,0.71975 5.331454,2.99485 6.160554,0.31884 -2.42204,-0.2242 -4.824778,-0.24825 -6.160554,-0.31884 z M 74.638999,487.56873 c -1.652182,-2.43281 -3.665891,-5.24343 -5.018517,-7.7001 2.7704,6.28458 5.983121,15.2234 12.668395,18.9988 2.255046,1.2741 4.023116,1.7506 5.842506,1.77642 -1.048818,-0.32142 -2.95584,-2.43174 -4.171064,-3.21329 0.01107,-0.17554 0.510192,-0.0628 0.241915,-0.25716 -1.947745,-0.70574 -3.158844,-2.87798 -4.741082,-4.10182 0.0709,-0.11117 0.289279,-0.14164 0.143571,-0.30313 -0.607683,-0.0356 -1.909066,-1.63687 -1.94889,-2.16138 -1.040873,-0.31285 -2.046212,-2.05734 -2.913832,-2.98955 0.06689,-0.12806 0.198191,-0.0761 0.246576,-0.25433 -0.175531,-0.0985 -0.288198,-0.0128 -0.349578,0.20554 z M 64.225978,468.52474 c 0.08114,0.98247 0.569612,2.15729 0.316081,2.99686 0.268773,-0.46603 -0.0233,0.13846 0.299201,0.14171 0.740976,4.55948 1.3516,9.6097 3.450266,13.8892 2.549286,5.2046 5.550243,10.8249 11.859335,13.9111 -5.318438,-3.80842 -7.210045,-9.0576 -10.216872,-14.24711 -2.105017,-5.43255 -4.126098,-11.3466 -5.708011,-16.69176 z m 31.082505,33.51217 c 1.930485,0.14627 4.655569,0.11103 7.114827,0.0538 1.09944,-0.0263 2.71374,-0.55649 2.91643,0.63848 -0.26972,1.69786 -0.85232,3.06737 -1.81978,3.84205 -2.07894,2.06898 -5.841789,-0.19308 -8.596003,-1.71923 -2.677611,-1.48501 -5.244939,-0.54031 -8.124098,-0.87711 -0.216901,-0.0619 -0.30388,-0.16987 -0.208148,-0.34663 -0.651127,0.39845 -2.413553,-0.17872 -2.813649,-0.58922 -2.804093,-0.48261 -5.428447,-2.28292 -7.992276,-4.03352 -0.695037,-0.9796 -1.871275,-1.08272 -1.996975,-2.05987 -1.18989,-0.54341 -1.794751,-1.97966 -2.712728,-2.8943 -0.05875,-0.19294 0.03652,-0.17848 0.143576,-0.30312 -0.853701,-0.51783 -1.822139,-2.13738 -1.814766,-2.9644 -0.657485,-0.28547 -1.337267,-1.69032 -1.003292,-2.33205 -0.464224,-0.0595 -0.06576,0.22709 -0.239513,0.50568 -0.716336,-1.22624 -1.206721,-2.53649 -1.778958,-3.81339 0.22307,-0.23006 0.305296,0.26831 0.457348,0.34032 0.08025,-0.68925 -1.038842,-0.48195 -0.52921,-1.24095 -0.414479,0.19042 -0.312946,-0.58181 -0.770901,-0.98426 -0.518592,-2.41715 -1.548989,-4.65393 -1.654407,-7.22071 -0.119536,-0.0773 -0.457094,-1.00017 -0.177265,-1.19793 -0.369171,-0.57721 -0.656185,-1.82236 -0.454993,-2.69089 -1.127612,-3.32477 -1.099539,-7.7836 -2.14753,-11.41595 -1.549347,3.28428 -3.026668,6.50424 -3.835927,10.1907 -2.00062,0.91468 -1.904686,5.08635 -4.712182,4.2052 0.390227,-2.66232 2.307057,-4.47779 3.498118,-7.13191 0.418357,-0.92181 0.644404,-1.94374 1.036848,-2.97517 0.784681,-2.03703 1.880245,-4.04578 2.432947,-5.65644 0.808319,-2.34053 1.509606,-5.32993 3.776217,-6.1342 1.487135,-0.52791 2.450595,1.72341 3.569891,3.1766 3.141035,4.08204 5.413175,8.29958 8.576385,12.72784 0.778135,1.09577 1.3302,2.32652 2.119094,3.10796 0.457595,0.45392 1.529139,0.93022 1.388781,1.77175 -0.155621,0.91178 -1.085064,1.44138 -1.77685,1.13957 -0.621104,-0.27352 -1.414674,-1.55226 -1.948889,-2.16137 -0.721778,-0.82172 -1.330812,-1.61521 -1.549073,-2.21943 -0.300863,-0.0494 -1.215257,-0.92094 -0.924368,-1.18008 -1.016072,-0.96111 -1.80939,-1.84731 -2.473197,-3.40002 -0.08461,-0.0242 -0.104495,0.0178 -0.08715,0.0573 -0.682368,-0.82885 -1.628821,-2.19052 -1.735124,-3.27201 -1.916716,-1.83626 -2.538535,-4.8596 -4.649835,-6.90631 -0.873112,0.68961 -1.421874,2.29195 -2.130927,3.44663 0.388571,0.1432 0.534721,-0.3809 0.950504,-0.16834 0.47104,0.64107 0.398818,1.47821 0.548326,2.24026 0.489245,-0.0313 0.900316,-0.29061 1.283229,-0.62992 0.193485,0.36491 0.811754,0.32745 1.072847,0.87928 -0.155654,0.32862 -0.321591,0.42538 0.112674,0.5482 -0.189515,0.0958 -0.237596,0.19734 -0.191675,0.40468 0.567227,2.35251 1.320533,4.87001 2.152345,7.20909 1.491322,4.19247 3.307452,9.05581 5.82778,12.78739 1.841311,2.71816 4.047829,5.22315 6.371463,7.72176 2.825958,3.0356 5.913595,6.12732 9.850608,8.99795 0.669759,0.48777 1.595269,1.32311 2.284118,1.45361 1.037821,0.1925 2.05533,-0.40892 3.084081,-0.76783 0.118697,-0.23741 -0.02996,-0.3805 0.184367,-0.6555 0.57238,0.33836 1.689148,-0.56137 2.458839,0.29866 0.137776,1.39541 -1.191986,2.19963 -2.361955,2.19739 z m -0.02353,-8.7e-4 c -0.126122,-0.0126 -0.251835,-0.0261 -0.367814,-0.0349 0.116943,0.0193 0.24273,0.0328 0.367814,0.0349" />
    <g
       id="g3451"
       transform="translate(620,380)">
      <path
         d="m -755.99076,991.1952 c 0.0863,1.7625 -2.19,4.325 -3.6075,6.4375 -1.6425,2.45 -3.65,4.2375 -4.38,5.4125 -7.41875,5.65 -18.1125,10.15 -29.89,7.475 -7.50375,-1.7 -13.2375,-6.1375 -18.5525,-11.6 -1.255,-1.2875 -4.5725,-3.9375 -4.38,-5.15 0.28,-1.7625 2.995,-2.325 3.865,-2.0625 1.37375,0.4125 2.94125,3.6 4.1225,4.9 7.57,8.225 19.67875,14.325 33.4975,9.0125 6.68875,-2.575 9.85625,-6.2125 13.91375,-12.8875 0,-0.7625 0,-1.5375 0,-2.3125 1.39625,-1.1625 5.22875,-2.775 5.41125,0.775"
         style="fill:#231f20;fill-opacity:1;fill-rule:nonzero;stroke:none"
         id="path172"
         inkscape:connector-curvature="0" />
      <path
         d="m -783.04701,976.5077 c 0.645,2.9625 2.2025,5.4875 0.2575,7.9875 -3.85375,1.2625 -4.42125,-6.9875 -5.1525,-10.5625 -2.18,-10.65 -4.24125,-22.3625 -5.15375,-32.2125 1.20375,-1 3.705,-0.9625 4.8975,0 0.89125,9.8875 2.5875,23.025 5.15125,34.7875"
         style="fill:#231f20;fill-opacity:1;fill-rule:nonzero;stroke:none"
         id="path174"
         inkscape:connector-curvature="0" />
      <path
         d="m -796.70201,969.0327 c 2.94125,5.0625 -2.38375,8.8625 -5.92625,4.375 -2.09375,-2.65 -2.35125,-8 -3.35,-12.625 -1.0425,-4.7875 -2.0825,-9.0375 -2.835,-11.85 0.2475,-0.0125 0.20375,-0.3125 0.2575,-0.5125 1.31125,-1 3.57625,-0.8125 4.89625,0 1.46,7.7875 2.05125,16.1125 4.89625,21.9 0.8575,-0.2625 0.665,-1.5625 2.06125,-1.2875"
         style="fill:#231f20;fill-opacity:1;fill-rule:nonzero;stroke:none"
         id="path176"
         inkscape:connector-curvature="0" />
    </g>
    <g
       id="g3667"
       transform="matrix(0.67718185,-0.24673508,-0.24673508,-0.67718185,751.6227,663.50707)">
      <g
         id="g3192"
         transform="matrix(0.72314216,0.36213532,-0.36213532,0.72314216,123.87136,26.771335)">
        <path
           inkscape:connector-curvature="0"
           id="path192"
           style="fill:#231f20;fill-opacity:1;fill-rule:nonzero;stroke:none"
           d="m 113.996,274.02 c 4.027,-0.17 9.447,0.88 8.451,-2.68 -0.043,-0.92 -1.083,-0.84 -1.443,-1.44 -8.091,-11.69 -17.049,-25.07 -27.4161,-36.08 -1.434,-1.52 -3.1606,-3.42 -4.9469,-5.56 -2.2762,-2.74 -5.3082,-6.91 -9.2762,-3.92 -0.4894,0.86 0.3348,1.2 0.4122,2.06 0.4636,-0.68 0.8757,-0.13 1.2367,-0.82 3.0922,1.51 4.8703,4.33 7.009,6.8 -1.0391,1.16 -1.8211,2.81 -1.0309,4.74 1.2367,-0.14 0.6187,-2.13 1.6492,-2.47 2.6192,0.91 4.002,3.66 5.1535,5.15 1.666,2.16 3.195,4.39 4.9465,6.6 5.059,6.36 11.252,12.59 15.255,20.2 -11.974,1.59 -27.3312,-0.02 -41.4335,-0.21 -2.4996,-0.03 -11.2434,-1.04 -14.6355,-0.82 -1.1942,0.07 -3.4875,0.86 -3.2981,2.26 0.1715,1.3 3.8219,0.51 6.3902,0.62 14.1289,0.62 30.027,2.38 43.2879,1.45 3.865,-0.28 7.747,-0.39 10.925,0 0.825,0.1 2.259,-0.33 2.474,1.03 -8.46,1.21 -19.3599,0.01 -27.4162,1.03 -0.7472,-0.69 -2.0527,-0.6 -3.0921,-0.62 -6.5274,-0.16 -17.2805,-0.69 -24.9418,0.2 -2.1731,0.26 -4.8789,0.54 -6.1844,1.03 -1.0992,0.43 -2.2934,1.87 -2.0613,2.27 0.9539,1.67 9.0269,-0.91 12.1621,-1.03 8.082,-0.3 15.5715,0.33 26.1789,0.41 6.5707,0.06 15.5198,0.06 21.6448,-0.2" />
        <path
           inkscape:connector-curvature="0"
           id="path194"
           style="fill:#231f20;fill-opacity:1;fill-rule:nonzero;stroke:none"
           d="m 103.276,258.56 c 0.704,-0.27 1.959,-1.06 1.65,-1.65 -0.645,-1.36 -4.26,-2.46 -6.5967,-3.3 -11.5605,-4.17 -21.7988,-8.3 -32.5695,-12.78 -10.4786,-4.35 -22.5114,-9.25 -34.0121,-13.6 -1.3313,-0.86 -3.152,-1.58 -5.1536,-2.48 -2.6453,-1.18 -5.9949,-3.23 -7.8328,-0.82 0.5668,1.93 2.3535,1.66 3.7106,2.06 2.7652,0.81 5.7804,2.24 8.6574,3.5 6.4676,2.85 13.3562,5.31 19.9953,8.25 0.7129,0.16 0.8672,-0.23 1.2367,-0.41 0.352,0.52 -0.232,0.72 0.2063,1.03 5.634,1.71 10.9851,4.82 16.2844,6.18 9.7828,5.28 23.3707,9.15 34.424,14.02" />
        <path
           inkscape:connector-curvature="0"
           id="path196"
           style="fill:#231f20;fill-opacity:1;fill-rule:nonzero;stroke:none"
           d="m 98.5355,257.86433 c 2.3535,0.77 4.6465,2.34 5.3595,-0.41 -4.4231,-2.32 -9.5083,-3.8 -14.4298,-5.36 -14.9531,-4.74 -30.25,-11.47 -45.9675,-15.04 -4.8961,-2.02 -10.7622,-3.71 -16.0789,-5.16 -1.5715,-0.43 -3.9422,-1.49 -5.1532,0.21 0.5582,1.68 2.5418,1.68 4.1231,1.85 -0.1813,0.58 -2.1645,0.71 -1.8555,2.06 0.223,0.99 2.0527,0.79 2.8856,1.04 4.9214,1.42 12.3082,5.52 16.6968,6.39 -0.034,0.17 0.0778,0.19 0.2067,0.2 0.2402,0.04 0.3687,-0.04 0.4121,-0.2 0.7558,-0.97 -0.052,0.38 0.2058,0.41 17.6418,6.21 33.7375,14.44 51.9461,20.61 0.7387,-0.57 1.752,-1.57 1.2367,-2.27 -1.1597,-1.22 -2.8687,-1.18 -4.3285,-1.65 -1.4605,-0.46 -2.7144,-1.3 -4.123,-1.85 -18.7406,-7.34 -36.6403,-15 -56.0684,-22.06 13.3903,3.5 27.991,8.28 40.8145,12.99 8.4855,3.12 14.9617,5.26 24.1179,8.24" />
      </g>
    </g>
    <text
       xml:space="preserve"
       style="font-size:64px;font-style:normal;font-weight:normal;line-height:125%;letter-spacing:0px;word-spacing:0px;fill:#000000;fill-opacity:1;stroke:none;font-family:Sketchetik Light;-inkscape-font-specification:Sketchetik Light"
       x="58.857143"
       y="713.36218"
       id="text3005"
       sodipodi:linespacing="125%"><tspan
         sodipodi:role="line"
         id="tspan3007"
         x="58.857143"
         y="713.36218"
         style="font-size:48px">Awesome!</tspan><tspan
         sodipodi:role="line"
         x="58.857143"
         y="773.36218"
         id="tspan3009"
         style="font-size:48px">You did it.</tspan><tspan
         sodipodi:role="line"
         x="58.857143"
         y="833.36218"
         id="tspan3011"
         style="font-size:48px">Now grab</tspan><tspan
         sodipodi:role="line"
         x="58.857143"
         y="893.36218"
         id="tspan3013"
         style="font-size:48px">some more.</tspan></text>
    <g
       id="layer1-1"
       inkscape:label="Layer 1"
       transform="matrix(0.81701405,0,0,0.81701405,360.1062,504.58731)">
      <g
         transform="translate(3.9999999,7.9999998)"
         id="g3705">
        <path
           style="fill:#130b07;fill-opacity:1;stroke:none"
           d="m 194,444.36218 c 20.30738,72.38496 -19.52603,91.86784 -23,150 l 17,-27 c -11.48341,23.55473 -19.8268,48.45518 -22,76 1.95617,-8.39909 3.61767,-14.74017 8.5,-17.5 -2.42296,26.33975 -2.86258,52.84479 10.5,80.5 l 1,31 4,-18 c 5.31672,22.67913 20.18878,38.19175 36,53 l -4,-15 18.5,11 -8.5,-27 c 5.75842,20.72474 14.72241,31.83276 23,45 -5.91584,-13.33333 -7.73757,-26.66667 -3,-40 -0.64704,10.97056 3.57478,20.63784 11,22.5 -9.0597,-10.05504 -6.56043,-24.17995 -4.5,-33 0.9896,9.82291 4.92363,19.58017 22.5,22.5 l 1,-336 -88,22 z"
           id="path3640"
           sodipodi:nodetypes="ccccccccccccccccccc"
           inkscape:connector-curvature="0" />
        <path
           sodipodi:nodetypes="ccccccccccccccccccc"
           id="path3661"
           d="m 198.59619,441.88731 c 20.30738,72.38496 -10.68719,80.20057 -22.64644,137.62563 6.79901,-12.43834 15.43077,-19.37841 24.07107,-26.2929 -11.48341,23.55473 -28.31209,50.5765 -30.48529,78.12132 1.95617,-8.39909 5.73899,-13.32595 10.62132,-16.08578 -2.42296,26.33975 -7.10522,55.67322 6.25736,83.32843 l 1,23.92893 4,-13.05025 c 3.7207,23.47714 11.6247,38.23115 27.51472,53 l 0.94975,-11.11092 16.37868,11.70711 -6.02513,-30.53553 c 5.75842,20.72474 16.49018,40.67159 24.76777,53.83883 -5.91584,-13.33333 -7.73757,-26.66667 -3,-40 -0.64704,10.97056 3.57478,20.63784 11,22.5 -9.0597,-10.05504 -6.56043,-24.17995 -4.5,-33 0.9896,9.82291 4.92363,19.58017 22.5,22.5 l 1,-336 -83.40381,19.52513 z"
           style="fill:#371e12;fill-opacity:1;stroke:none"
           inkscape:connector-curvature="0" />
        <path
           style="fill:#743d0e;fill-opacity:1;stroke:none"
           d="m 203.19238,441.8873 c 13.23632,71.67785 -2.55546,66.05844 -21.58578,126.31193 6.79901,-12.43834 17.55209,-17.96419 26.19239,-24.87868 -11.48341,23.55473 -36.09026,60.47599 -38.26346,88.02081 1.95617,-8.39909 11.39584,-24.01098 16.27817,-29.52081 4.12954,45.16337 -6.09191,65.66887 -6.09191,65.66887 19.26976,-31.53576 18.13627,-44.61347 17.88509,-60.11845 4.81988,25.93593 -7.57902,65.91891 -13.9082,78.25877 14.9714,-16.40501 12.63314,-15.02718 18.94345,-23.92924 -12.58484,27.55947 -15.65361,39.25929 -15.22792,60.81244 2.973,-11.11371 5.45699,-22.55344 13.89949,-30.02081 -8.30011,27.71978 1.72521,55.20171 17.61523,69.97056 l 0.94975,-11.11092 16.37868,11.70711 -6.02513,-30.53553 c 5.75842,20.72474 16.49018,40.67159 24.76777,53.83883 -5.91584,-13.33333 -7.73757,-26.66667 -3,-40 -0.64704,10.97056 3.57478,20.63784 11,22.5 -9.0597,-10.05504 -6.56043,-24.17995 -4.5,-33 0.9896,9.82291 4.92363,19.58017 22.5,22.5 l 1,-336 -78.80762,19.52512 z"
           id="path3663"
           sodipodi:nodetypes="cccccccccccccccccccccc"
           inkscape:connector-curvature="0" />
        <path
           sodipodi:nodetypes="cccccccccccccccccccccc"
           id="path3665"
           d="m 204.6066,439.76598 c 13.23632,71.67785 -3.96968,68.17976 -23,128.43325 6.79901,-12.43834 17.55209,-17.96419 26.19239,-24.87868 -11.48341,23.55473 -36.09026,60.47599 -38.26346,88.02081 1.95617,-8.39909 11.39584,-24.01098 16.27817,-29.52081 4.12954,45.16337 -6.09191,65.66887 -6.09191,65.66887 19.26976,-31.53576 18.13627,-44.61347 17.88509,-60.11845 4.81988,25.93593 -7.57902,65.91891 -13.9082,78.25877 14.9714,-16.40501 12.63314,-15.02718 18.94345,-23.92924 -12.58484,27.55947 -15.65361,39.25929 -15.22792,60.81244 2.973,-11.11371 5.45699,-22.55344 13.89949,-30.02081 -8.30011,27.71978 1.72521,55.20171 17.61523,69.97056 l 0.94975,-11.11092 16.37868,11.70711 -6.02513,-30.53553 c 5.75842,20.72474 16.49018,40.67159 24.76777,53.83883 -5.91584,-13.33333 -7.73757,-26.66667 -3,-40 -0.64704,10.97056 3.57478,20.63784 11,22.5 -9.0597,-10.05504 -6.56043,-24.17995 -4.5,-33 0.9896,9.82291 4.92363,19.58017 22.5,22.5 l 1,-336 -77.3934,17.4038 z"
           style="fill:#9e560f;fill-opacity:1;stroke:none"
           inkscape:connector-curvature="0" />
        <path
           style="fill:#743d0e;fill-opacity:1;stroke:none"
           d="m 207.6066,495.76598 c 2.73632,17.67785 6.53032,-7.32024 -12.5,52.93325 6.79901,-12.43834 16.55209,-18.96419 24.69239,-28.37868 -11.48341,23.55473 -17.09026,56.47599 -19.26346,84.02081 1.95617,-8.39909 9.89584,-39.51098 22.77817,-44.52081 -7.71069,12.11816 -17.0935,40.78209 -11.20682,60.05042 L 282,422.36218 l -74.3934,73.4038 z"
           id="path3667"
           sodipodi:nodetypes="cccccccc"
           inkscape:connector-curvature="0" />
        <path
           style="fill:#130b07;fill-opacity:1;stroke:none"
           d="m 231.08536,735.29765 7.77817,13.43502 0.70711,19.09189 -6.36397,11.3137 6.36397,-3.53553 c -2.21943,44.33986 -24.4321,68.86135 -37.47666,74.95332 l 14.14213,0.70711 -14.84924,21.9203 10.6066,-4.94974 2.82843,5.65685 c 5.55116,-11.98028 17.29523,-3.31754 28.28427,2.82843 l 8.48528,6.36396 c 4.665,-4.95291 13.02531,-3.74698 23.33452,0.70711 14.87895,-7.01358 27.98021,-3.36107 41.0122,0.70711 14.10849,2.96302 28.17653,6.08783 45.96194,-5.65686 l -6.36396,7.77818 14.84924,-5.65686 -2.37132,6.8566 c 0,0 7.59388,-7.3648 10.44239,-5.48528 10.85477,6.05739 8.61455,2.2698 13.39213,2.25 0.99532,1.28745 2.11673,2.54968 -0.12868,4.48528 15.13228,-1.12802 31.56988,10.14118 37.89824,8.11396 3.91293,-1.25347 22.58708,-5.67625 40.4693,0.0429 -3.63814,-2.63709 -7.33165,-5.25572 -7.07107,-9.19239 11.31371,1.03152 22.62741,-2.27272 33.94112,3.53553 15.15888,-4.39035 25.6655,-12.46373 55.86144,-4.94974 l 12.02082,-4.94975 c -4.40543,-5.05913 -8.80459,-10.12764 -10.60661,-19.09188 8.52097,0.32869 11.09309,-0.89377 23.62006,-6.82107 -28.04819,-13.21259 -30.27277,-39.33699 -41.29773,-61.06119 0.58285,-10.27018 -5.20961,-18.80164 -11.8579,-27.09969 4.37818,-1.76198 8.76125,3.93691 12.47662,7.47748 4.35868,-17.53405 -9.12716,-32.89823 -20.18633,-40.56289 7.20027,-8.86752 13.67586,-12.67712 21.44109,-1.32888 -2.88903,-18.49902 -12.81373,-32.69194 -24.55029,-46.13522 11.95699,-1.81693 26.43266,7.55641 25.94718,21.2054 3.84267,-8.72835 -5.00976,-43.0465 -33.27821,-53.29818 8.43734,-9.60363 19.84746,-3.6002 30.84058,0.21402 -6.31881,-22.10415 -26.75358,-43.22425 -42.94979,-53.07025 10.31757,-1.80237 19.96295,1.43671 28.94719,9.63433 1.02808,-23.47672 -9.59704,-51.97656 -17.55029,-74.85452 l -97.70478,-69.23394 c -27.58837,5.30281 -104.40669,21.18064 -162.73149,48.55635 -16.3639,7.68067 -29.86617,42.30347 -34.72792,73.70458 -5.13381,33.15831 9.12277,96.85826 17.46447,127.80256 l 2.94975,17.59189 z"
           id="path2816"
           sodipodi:nodetypes="cccccccccccccccccccccsccccccccccccccccccccsscc"
           inkscape:connector-curvature="0" />
        <path
           sodipodi:nodetypes="ccccccccscccccccccssccccccccccccccccccccccccscccccccsccccccccccccccccccccccccccsscccc"
           id="path3669"
           d="m 237.80287,735.6512 8.83883,11.3137 -2.47487,15.55636 -3.53554,8.48527 6.36397,-3.18197 c -0.27743,5.54248 -0.82306,10.84712 -1.59098,15.89867 0.36604,16.77577 1.17651,23.98827 8.68714,35.8856 -8.48937,-8.60268 -9.02858,-14.52053 -11.61188,-21.50546 -2.3332,9.06026 -5.37194,17.0472 -8.74897,23.8389 -6.75406,13.5834 -14.86126,22.38582 -21.38354,25.4318 l 12.72791,0.70711 -17.67766,20.15253 8.83883,-4.59618 -0.35355,7.07106 c 5.55116,-11.98028 17.29523,-2.25688 28.28427,3.88909 l 6.71751,5.65685 c 4.665,-4.95291 13.37887,-2.33276 23.68808,2.12133 14.87895,-7.01358 30.10153,-4.06818 43.13352,0 18.19118,4.66349 39.19887,2.86547 47.91897,-11.47326 10.83892,-17.82275 13.94787,-36.88293 10.97216,-51.87672 -0.74393,-3.74845 -3.28236,-12.8996 -6.88248,-16.05688 -0.93212,0.333 -19.27249,0.79512 -19.27249,0.79512 0,0 2.71453,9.60934 2.71453,9.60934 0,0 -18.8226,-14.75111 -18.8226,-14.75111 l 2.1676,12.56483 -19.97419,-33.72458 c -5.41706,4.29686 -4.33356,13.23697 -5.50287,20.56794 l -17.38538,-35.54082 -2.4299,12.42931 1.41733,-18.23322 17.76198,35.56635 c -0.34315,-6.94911 0.0366,-13.65726 5.61146,-18.63368 l 16.04671,26.73579 -0.417,-6.60145 c 0,0 17.8368,14.95313 17.8368,14.95313 0,0 -1.0688,-7.70761 -1.0688,-7.70761 0,0 18.36399,-0.37945 19.3779,-0.7504 -4.32452,-4.80073 -9.96454,-7.92189 -16.7144,-8.70051 43.51628,1.28057 30.34244,70.75857 10.15686,90.94975 l 11.99569,-4.01041 -3.78554,6.8566 c 0,0 8.65454,-7.01125 11.50305,-5.13173 10.85477,6.05739 7.90745,2.62335 12.68503,2.60355 0.99532,1.28745 2.82383,2.90324 0.57842,4.83884 15.13228,-1.12802 27.32724,10.14118 33.6556,8.11396 3.91293,-1.25347 19.75866,-6.73691 37.64088,-1.01776 -3.63814,-2.63709 -5.56389,-4.54862 -5.30331,-8.48529 11.31371,1.03152 27.57716,-2.62627 38.89087,3.18198 15.15888,-4.39035 21.77641,-12.11018 51.97235,-4.59619 l 10.96016,-4.94975 c -4.40543,-5.05913 -8.09748,-11.8954 -11.66727,-21.56675 5.69255,4.21778 11.8002,3.34887 24.32717,-2.57843 -14.0241,-6.6063 -20.71661,-16.47536 -25.44159,-27.33874 -5.58512,-12.84096 -9.44729,-19.99143 -9.72221,-20.68035 l -23.54444,50.00956 -21.28775,-35.46793 -13.70646,9.80281 -19.03864,-23.81363 -10.91903,33.24925 -22.64328,-59.52473 23.55528,44.19066 9.72768,-21.45143 20.5397,24.26433 13.79795,-12.83688 19.73912,38.70918 c 0,0 21.37493,-51.71248 21.05256,-52.39942 -0.32238,-0.68695 -0.22461,-7.77388 -0.22461,-7.77388 0,0 -5.20961,-18.80164 -11.8579,-27.09969 4.37818,-1.76198 8.76125,3.93691 12.47662,7.47748 4.35868,-17.53405 -9.12716,-32.89823 -20.18633,-40.56289 7.20027,-8.86752 13.67586,-12.67712 21.44109,-1.32888 -2.88903,-18.49902 -12.81373,-32.69194 -24.55029,-46.13522 11.95699,-1.81693 26.43266,7.55641 25.94718,21.2054 3.84267,-8.72835 -5.00976,-43.0465 -33.27821,-53.29818 8.43734,-9.60363 19.84746,-3.6002 30.84058,0.21402 -6.31881,-22.10415 -26.75358,-43.22425 -42.94979,-53.07025 10.31757,-1.80237 19.96295,1.43671 28.94719,9.63433 1.02808,-23.47672 -9.59704,-51.97656 -17.55029,-74.85452 l -97.70478,-69.23394 c -27.58837,5.30281 -104.40669,21.18064 -162.73149,48.55635 -16.3639,7.68067 -26.86617,42.30347 -31.72792,73.70458 -5.13381,33.15831 10.12277,95.85826 18.46447,126.80256 l 5.66726,18.94544 0,10e-6 -3e-5,0 z"
           style="fill:#371e12;fill-opacity:1;stroke:none"
           inkscape:connector-curvature="0" />
        <path
           style="fill:#743d0e;fill-opacity:1;stroke:none"
           d="m 237.80287,735.6512 8.83883,11.3137 -2.47487,15.55636 -3.53554,8.48527 6.36397,-3.18197 c -0.27743,5.54248 -0.82306,10.84712 -1.59098,15.89867 0.36604,16.77577 1.17651,23.98827 8.68714,35.8856 -8.48937,-8.60268 -9.02858,-14.52053 -11.61188,-21.50546 -2.3332,9.06026 -5.37194,17.0472 -8.74897,23.8389 -6.75406,13.5834 -14.86126,22.38582 -21.38354,25.4318 l 12.72791,0.70711 -17.67766,20.15253 8.83883,-4.59618 -0.35355,7.07106 c 5.55116,-11.98028 17.29523,-2.25688 28.28427,3.88909 l 6.71751,5.65685 c 4.665,-4.95291 13.37887,-2.33276 23.68808,2.12133 14.87895,-7.01358 30.10153,-4.06818 43.13352,0 18.19118,4.66349 39.19887,2.86547 47.91897,-11.47326 10.83892,-17.82275 13.94787,-36.88293 10.97216,-51.87672 -0.74393,-3.74845 -3.28236,-12.8996 -6.88248,-16.05688 -0.93212,0.333 -19.27249,0.79512 -19.27249,0.79512 0,0 5.46453,13.85934 5.46453,13.85934 0,0 -21.5726,-19.00111 -21.5726,-19.00111 l 4.4176,18.31483 -22.22419,-37.72458 c -5.41706,4.29686 -2.83356,15.23697 -4.00287,22.56794 l -18.38538,-35.79082 -3.4299,12.17931 0.66733,-25.23322 18.76198,38.81635 c -0.34315,-6.94911 0.2866,-13.15726 5.86146,-18.13368 l 16.04671,26.73579 -1.667,-9.35145 c 0,0 19.0868,17.70313 19.0868,17.70313 0,0 -2.8188,-9.20761 -2.8188,-9.20761 0,0 20.11399,1.12055 21.1279,0.7496 -4.32452,-4.80073 -9.96454,-7.92189 -16.7144,-8.70051 47.50037,4.83746 31.99524,71.00613 10.15686,90.94975 l 11.99569,-4.01041 -3.78554,6.8566 c 0,0 8.65454,-7.01125 11.50305,-5.13173 10.85477,6.05739 7.90745,2.62335 12.68503,2.60355 0.99532,1.28745 2.82383,2.90324 0.57842,4.83884 15.13228,-1.12802 27.32724,10.14118 33.6556,8.11396 3.91293,-1.25347 19.75866,-6.73691 37.64088,-1.01776 -3.63814,-2.63709 -5.56389,-4.54862 -5.30331,-8.48529 11.31371,1.03152 27.57716,-2.62627 38.89087,3.18198 15.15888,-4.39035 21.77641,-12.11018 51.97235,-4.59619 l 10.96016,-4.94975 c -4.40543,-5.05913 -8.09748,-11.8954 -11.66727,-21.56675 5.69255,4.21778 11.8002,3.34887 24.32717,-2.57843 -14.0241,-6.6063 -20.71661,-16.47536 -25.44159,-27.33874 -5.58512,-12.84096 -9.44729,-17.49143 -9.72221,-18.18035 l -23.04444,50.75956 -22.53775,-36.21793 -12.95646,10.05281 -18.78864,-22.06363 -11.16903,36.74925 -22.64328,-67.52473 23.30528,40.19066 9.97768,-17.45143 20.5397,21.01433 14.54795,-12.33688 18.73912,38.45918 c 0,0 21.62493,-48.71248 21.30256,-49.39942 -0.32238,-0.68695 -0.22461,-7.77388 -0.22461,-7.77388 0,0 -5.20961,-18.80164 -11.8579,-27.09969 4.37818,-1.76198 8.76125,3.93691 12.47662,7.47748 4.35868,-17.53405 -9.12716,-32.89823 -20.18633,-40.56289 7.20027,-8.86752 13.67586,-12.67712 21.44109,-1.32888 -2.88903,-18.49902 -12.81373,-32.69194 -24.55029,-46.13522 11.95699,-1.81693 26.43266,7.55641 25.94718,21.2054 3.84267,-8.72835 -5.00976,-43.0465 -33.27821,-53.29818 8.43734,-9.60363 19.84746,-3.6002 30.84058,0.21402 -6.31881,-22.10415 -26.75358,-43.22425 -42.94979,-53.07025 10.31757,-1.80237 19.96295,1.43671 28.94719,9.63433 1.02808,-23.47672 -9.59704,-51.97656 -17.55029,-74.85452 l -97.70478,-69.23394 c -27.58837,5.30281 -104.40669,21.18064 -162.73149,48.55635 -16.3639,7.68067 -26.86617,42.30347 -31.72792,73.70458 -5.13381,33.15831 10.12277,95.85826 18.46447,126.80256 l 5.66726,18.94544 0,10e-6 -3e-5,0 z"
           id="path2884"
           sodipodi:nodetypes="ccccccccscccccccccssccccccccccccccccccccccccscccccccsccccccccccccccccccccccccccsscccc"
           inkscape:connector-curvature="0" />
        <path
           sodipodi:nodetypes="ccccccccscccccccccccccccccccccccccccccccccccccccccccccccccccccccssccccsc"
           id="path3658"
           d="m 427.85038,895.76799 c 3.91293,-1.25347 19.75866,-6.73691 37.64088,-1.01776 -3.63814,-2.63709 -5.56389,-4.54862 -5.30331,-8.48529 11.31371,1.03152 27.57716,-2.62627 38.89087,3.18198 15.15888,-4.39035 21.77641,-12.11018 51.97235,-4.59619 l 10.96016,-4.94975 c -4.40543,-5.05913 -8.09748,-11.8954 -11.66727,-21.56675 5.69255,4.21778 11.8002,3.34887 24.32717,-2.57843 -14.0241,-6.6063 -21.77727,-14.70759 -26.50225,-25.57097 -5.58512,-12.84096 -8.38663,-14.66301 -8.66155,-15.35193 l -22.21601,55.93114 -25.36618,-36.9857 -4.34267,25.81955 -3.63556,-5.29315 -7.97823,20.52641 -9.66732,-47.77074 -7.81675,13.91447 -13.4736,36.54189 -4.16082,-23.88118 -1.33239,-24.58829 -8.75702,15.71679 -2.39305,-62.77205 23.30528,40.19066 9.97768,-17.45143 20.5397,21.01433 14.54795,-12.33688 18.73912,38.45918 c 0,0 21.62493,-48.71248 21.30256,-49.39942 -0.32238,-0.68695 -0.22461,-7.77388 -0.22461,-7.77388 0,0 -5.20961,-18.80164 -11.8579,-27.09969 4.37818,-1.76198 8.76125,3.93691 12.47662,7.47748 4.35868,-17.53405 -9.12716,-32.89823 -20.18633,-40.56289 7.20027,-8.86752 13.67586,-12.67712 21.44109,-1.32888 -2.88903,-18.49902 -12.81373,-32.69194 -24.55029,-46.13522 11.95699,-1.81693 26.43266,7.55641 25.94718,21.2054 3.84267,-8.72835 4.99024,-22.0465 -23.27821,-32.29818 8.43734,-9.60363 9.84746,-24.6002 20.84058,-20.78598 -6.31881,-22.10415 -109.94979,40.92975 -109.94979,40.92975 l -11.05281,-33.36567 -19.85539,27.93468 10.48209,-59.82141 1.50369,-15.96113 -13.34555,35.30412 c 0.33703,-10.08078 -1.85923,-23.40194 -5.92093,-38.23499 -1.22818,13.65365 -2.05098,24.83244 -3.0925,34.59701 l -5.56738,-17.7289 c -1.39861,17.8963 -0.45228,35.7926 -5.21383,53.68889 -2.07055,-21.29444 -0.82405,-43.41814 -9.81001,-62.98372 0.96546,15.96661 -0.61994,27.87563 -3.79962,39.9003 -0.96655,-8.38475 -3.39785,-17.12306 -9.85446,-25.15427 2.08189,20.49792 -0.43402,35.48844 -9.52675,49.0436 3.05405,-17.65208 -2.4338,-38.99194 -13.25607,-57.48497 -0.48987,16.92257 -2.14463,33.78147 -4.78399,50.49853 -0.31901,-7.24478 -2.02925,-14.20333 -5.18981,-19.13022 -9.87807,16.28631 -12.72119,43.08957 -7.52779,68.01305 -7.80209,-21.02324 -15.01688,-39.64101 -10.55975,-80.07163 -8.34518,18.16533 -10.05397,22.26965 -10.24668,43.24267 -7.09983,-29.31162 0.0476,-46.31667 0.0476,-46.31667 0,0 -4.84374,7.58547 -5.87379,14.01987 -4.53496,-16.47613 -3.53234,-35.30886 0.52928,-47.4971 -8.23372,17.71075 -12.26284,56.28115 -12.0113,70.45637 -2.02009,-9.98427 -3.47581,-22.08985 -3.52553,-32.07411 -8.01417,14.29272 -6.32548,43.27359 -4.23312,55.60712 -8.94157,-24.61679 -26.2686,-45.43715 -20.49659,-70.96499 -2.80002,10.61405 -4.61385,22.44066 -3.7869,35.04401 0.82695,12.60335 4.29468,25.98344 12.0578,39.70443 7.76311,13.721 19.82162,27.78291 37.8301,41.7499 3.69368,5.48633 14.65731,22.05154 16.81205,28.17855 1.96193,-5.05459 3.47177,-7.73594 6.86998,-10.35374 6.16663,7.23597 12.60964,15.36201 18.57568,21.25687 15.31556,-4.10263 24.47742,-2.61799 31.27228,2.0987 46.15864,32.04127 -5.30753,70.70546 62.96192,106.47645 z"
           style="fill:#9e560f;fill-opacity:1;stroke:none"
           inkscape:connector-curvature="0" />
        <path
           style="fill:#130b07;fill-opacity:1;stroke:none"
           d="m 418.5,486.36218 c 1.5,7.5 1.5,25.5 1.5,25.5 l -0.5,58 c 3.04447,-4.52202 6.29125,-7.62789 10,-7.5 -7.62281,16.46327 -11.47812,33.42435 -11.75,48 1.53173,-8.78046 3.92282,-16.96196 8.25,-21.5 -0.14953,21.90319 -14.52849,40.02521 -12,60.25 3.33333,-12.3424 6.66667,-19.7634 10.5,-27.75 -0.55361,5.42658 -1.46578,10.73363 -4,15.5 l 4,-2 c -6.48716,19.23803 -7.22082,35.6425 -2.5,55.75 l 5.75,-21.25 c 2.34124,22.09282 -2.44371,37.33421 -6.5,51.75 2.23089,-5.44215 4.10763,-11.3565 8.25,-14.25 -6.9286,16.32526 -11.49792,43.75198 -6,62.5 1.82504,-9.17081 1.10391,-19.61471 5.5,-27.5 6.24153,26.07357 21.18789,47.44862 42.5,65 l -2,-23 c 13.41085,8.3676 33.09391,21.20482 63.75,14.75 l -13,-11.75 c 11.35931,7.96717 25.83405,9.99833 39.25,11.75 -5.47061,-4.73038 -11.61421,-8.08101 -14.5,-14.75 l 5.5,2.5 c -2.6993,-2.72101 -5.62906,-5.3844 -5.75,-8.75 11.59719,3.39358 23.18048,6.14364 36.75,6.25 -12.68751,-8.77546 -17.02535,-22.18962 -24.25,-34 8.65165,3.82659 17.43729,7.20704 26.75,15 l -10.75,-10.25 c -5.74653,-9.51259 -11.16466,-19.51167 -11.75,-32.25 l 3,-21 c 6.56143,-4.30714 11.13069,1.34656 16.5,3 -20.40607,-31.35006 -58.39538,-83.42927 -46,-161 l -29,-64.5 -87.5,7.5 z"
           id="path3644"
           sodipodi:nodetypes="cccccccccccccccccccccccccccccccccc"
           inkscape:connector-curvature="0" />
        <path
           sodipodi:nodetypes="cccccccccccccccccccccccccccccccccc"
           id="path3642"
           d="m 418.5,486.36218 c 1.5,7.5 1.5,25.5 1.5,25.5 l -0.5,58 c 3.04447,-4.52202 6.29125,-7.62789 10,-7.5 -7.62281,16.46327 -13.95299,32.01014 -14.22487,46.58579 1.53173,-8.78046 7.45835,-19.43684 11.78553,-23.97488 -0.14953,21.90319 -17.71047,47.80339 -15.18198,68.02818 1.21201,-14.81728 10.2022,-33.19843 15.44975,-38.3566 -0.55361,5.42658 -3.5871,20.63312 -6.12132,25.39949 l 8.94974,-9.42462 c -6.48716,19.23803 -10.75635,29.98565 -8.15685,50.09315 1.75771,-5.27447 4.49293,-11.52644 7.16421,-17.71447 2.34124,22.09282 -0.67594,34.50578 -4.73223,48.92157 2.23089,-5.44215 5.52184,-8.52807 9.31066,-8.23959 -6.9286,16.32526 -13.97279,36.68091 -10.94975,57.55025 1.82504,-9.17081 2.51813,-15.37207 6.91422,-23.25736 6.24153,26.07357 16.94525,44.97375 38.25736,62.52513 -0.9451,-9.23112 -2.15838,-17.9259 -1.2929,-30.77818 2.80425,11.19603 30.26549,33.93275 60.92158,27.47793 -6.24574,-6.1204 -14.89591,-11.50098 -17.24264,-18.82107 11.35931,7.96717 30.07669,15.65518 43.49264,17.40685 -5.47061,-4.73038 -9.20736,-8.00258 -12.09315,-14.67157 l 5.25,2.75 c -2.6993,-2.72101 -4.00406,-5.7594 -4.125,-9.125 11.59719,3.39358 21.18048,7.64364 34.75,7.75 -12.68751,-8.77546 -17.15035,-23.68962 -24.375,-35.5 8.65165,3.82659 22.18729,13.20704 31.5,21 l -15.125,-15.75 c -5.74653,-9.51259 -8.53966,-17.76167 -9.125,-30.5 l 3.375,-21.125 c 6.56143,-4.30714 11.75569,2.09656 17.125,3.75 -20.40607,-31.35006 -58.39538,-83.42927 -46,-161 l -29,-64.5 -87.5,7.5 z"
           style="fill:#371e12;fill-opacity:1;stroke:none"
           inkscape:connector-curvature="0" />
        <path
           style="fill:#743d0e;fill-opacity:1;stroke:none"
           d="m 418.5,486.36218 c 1.5,7.5 1.35436,16.98655 1.5,25.5 0.60742,35.50707 22.26667,24.97209 11.5,79.5 9.84815,7.26858 11.24109,8.23286 15.56066,15.11091 -4.99584,-6.14387 -9.03194,-8.91189 -16.23223,-10.82842 0.19497,12.31108 -3.03726,24.62216 5.91421,36.93324 l 8.08222,-16.91547 11.08452,32.87131 9.26265,-19.25485 14.13271,44.37612 5.91951,-16.29649 2.26267,17.97053 7.11189,-22.98278 14.40479,55.13349 9.94033,-21.76097 8.02002,24.65683 5.37667,-17.64518 -0.45926,32.96657 -13.89429,-28.55172 -11.77297,20.23864 -11.77297,-49.05782 -6.82323,18.11732 -3.9948,-12.28826 -4.7019,12.46047 -15.3085,-41.27964 -8.45279,15.81854 -9.70127,-21.72246 c -1.91421,23.49832 5.17245,57.62601 11.7283,69.72112 -8.17634,-10.18857 -7.04709,-6.61485 -13.75877,-24.0269 0.80637,16.62381 5.44667,34.46513 13.14385,46.49273 -8.26436,-5.5702 -15.3806,-16.75634 -21.18636,-35.16769 0.31647,20.22696 9.36443,40.04163 19.41162,49.88092 -9.84136,-4.44264 -16.30743,-14.65532 -21.03991,-20.30893 4.65054,26.42712 12.89499,56.9235 34.2071,74.47488 -0.9451,-9.23112 -2.15838,-17.9259 -1.2929,-30.77818 2.80425,11.19603 30.26549,33.93275 60.92158,27.47793 -6.24574,-6.1204 -14.89591,-11.50098 -17.24264,-18.82107 11.35931,7.96717 30.07669,15.65518 43.49264,17.40685 -5.47061,-4.73038 -9.20736,-8.00258 -12.09315,-14.67157 l 5.25,2.75 c -2.6993,-2.72101 -4.00406,-5.7594 -4.125,-9.125 11.59719,3.39358 21.18048,7.64364 34.75,7.75 -12.68751,-8.77546 -17.15035,-23.68962 -24.375,-35.5 8.65165,3.82659 22.18729,13.20704 31.5,21 l -15.125,-15.75 c -5.74653,-9.51259 -8.53966,-17.76167 -9.125,-30.5 l 3.375,-21.125 c 6.56143,-4.30714 11.75569,2.09656 17.125,3.75 -20.40607,-31.35006 -58.39538,-83.42927 -46,-161 l -29,-64.5 -87.5,7.5 z"
           id="path3645"
           sodipodi:nodetypes="csccccccccccccccccccccccccccccccccccccccccccccccccc"
           inkscape:connector-curvature="0" />
        <path
           sodipodi:nodetypes="cccccccccccccccccccccccccscccsccccccccccccccccccccc"
           id="path3647"
           d="M 441.83452,587.47845 C 444.93372,569.96634 438.9528,516.06354 420,511.86218 c 0.60742,35.50707 25.26667,24.22209 14.5,78.75 9.84815,7.26858 11.24109,12.73286 15.56066,19.61091 -4.99584,-6.14387 -10.03194,-9.66189 -17.23223,-11.57842 0.19497,12.31108 -4.78726,19.87216 4.16421,32.18324 l 7.83222,-15.16547 11.08452,32.87131 9.26265,-19.25485 14.13271,44.37612 5.91951,-16.29649 2.26267,17.97053 7.11189,-22.98278 14.40479,55.13349 9.94033,-21.76097 8.02002,24.65683 9.12667,-30.89518 c -3.52869,20.29043 -1.09204,46.80505 2.50825,69.02292 l -21.1118,-35.287 -13.71231,25.69879 -9.27297,-42.76492 -4.11612,28.66326 -7.05546,-35.85502 -4.61612,18.496 -15.39428,-46.69385 c 5.55126,22.80664 2.6705,40.07869 0.82378,56.00798 -0.46168,3.98232 -0.85874,7.88072 -1.04326,11.7607 0.0691,3.99907 6.19464,23.45198 11.65111,28.06433 -3.27271,-2.38623 -5.96103,-4.20435 -11.41916,-16.41418 0.77691,7.81724 2.99559,15.82278 7.83929,24.54058 7.33974,13.21024 25.76549,38.93275 56.42158,32.47793 -6.24574,-6.1204 -14.89591,-11.50098 -17.24264,-18.82107 11.35931,7.96717 30.07669,15.65518 43.49264,17.40685 -5.47061,-4.73038 -9.20736,-8.00258 -12.09315,-14.67157 l 5.25,2.75 c -2.6993,-2.72101 -4.00406,-5.7594 -4.125,-9.125 11.59719,3.39358 21.18048,7.64364 34.75,7.75 -12.68751,-8.77546 -17.15035,-23.68962 -24.375,-35.5 8.65165,3.82659 22.18729,13.20704 31.5,21 l -15.125,-15.75 c -5.74653,-9.51259 -8.53966,-17.76167 -9.125,-30.5 l 3.375,-21.125 c 6.56143,-4.30714 11.75569,2.09656 17.125,3.75 -20.40607,-31.35006 -58.39538,-83.42927 -46,-161 -7.64884,53.16755 -9.33561,78.75794 -2.83059,116.01558 l -21.21535,-71.36772 -3.53985,26.26309 c 0.0499,-8.64677 -2.29595,-16.81437 -6.96003,-24.51834 l 2.23238,32.7573 c -19.4876,-22.1518 -36.83242,-38.67359 -45.73986,-69.89634 l -15.11218,34.8627 z"
           style="fill:#9e560f;fill-opacity:1;stroke:none"
           inkscape:connector-curvature="0" />
        <path
           style="fill:#22140d;fill-opacity:1;stroke:none"
           d="m 523,443.36218 12,37 -10,-17 c -1,10.55791 -2,16.62409 -3,32 -1.07776,16.57148 13.67291,46.73381 29,57 l -17.5,-9 c 1.32838,22.94362 -1.83997,45.88778 -8.5,67.5 -9.8364,-21.29939 -12.69886,-38.99356 -16.5,-61.5 l -4.5,39 c -3.10904,-15.54027 -1.6696,-34.95154 -16.5,-42 3.06711,14.80088 5.76024,28.85381 7.5,41 -16.29148,-14.16677 -38.58799,-35.61639 -38.5,-64.5 l -11.5,46 c -0.72353,-25.70735 -4.42495,-46.68129 -21,-60.5 l -1,14 -5.5,9.5 3.5,37.5 8,-8.5 -12.5,24 -5.5,-22.5 -14,37 -7,-36 c -10.59735,-2.5207 -5.1542,-4.17914 -8,-7 -9.0831,17.77783 -12.41252,36.05648 -9.5,56.5 -10.76208,-5.23792 -15.89287,-16.10713 -21.5,-26.5 l 4,22 c -12.01348,-10.73315 -25.94339,-19.07076 -33,-36 l -12,44 c 0,0 -5.52611,-13.45233 -8.5,-21 -3.93498,-9.9869 14,-29 14,-29 -17.32902,14.11061 -32.36748,-1.55611 -48.5,-3 l -8.5,7 c -14.57118,-9.28839 -26.99457,-22.42653 -25.5,-37 l -7,21 -6,-33 -8.5,15 -2.5,-21 c -1.66667,6 -9.25575,30.90805 -6,20.5 -0.86616,-22.20013 4.85867,-46.048 9,-69.5 l 12,-45 c 77.00882,-39.84248 154.3035,-79.94126 299,22 z"
           id="path2930"
           sodipodi:nodetypes="cccsccccccccccccccccccccccccscccccccccccc"
           inkscape:connector-curvature="0" />
        <path
           sodipodi:nodetypes="cccsccccccccccccccccccccccccscccccccccccc"
           id="path3733"
           d="M 523,443.36218 536.41421,480.00863 525,463.36218 c -1,10.55791 -3.5,17.12409 -4.5,32.5 -1.07776,16.57148 15.17291,46.23381 30.5,56.5 l -19,-12 c 1.32838,22.94362 -4.90063,47.85961 -6.56066,64.97183 -9.8364,-21.29939 -10.6382,-38.46539 -17.93934,-60.47183 l -3.5,43.5 c -3.10904,-15.54027 1.3304,-37.95154 -18.5,-45.5 3.06711,14.80088 6.26024,28.85381 8,41 -16.29148,-14.16677 -36.58799,-38.11639 -36.5,-67 l -12,46.5 c -0.72353,-25.70735 -0.17495,-43.43129 -23.25,-59 l 0.5,17.75 -5.5,10 3.25,40 9,-11.25 -11.75,21 -5.75,-24.25 -14.25,38 -5.75,-33.5 c -10.5979,-2.52015 -4.82065,1.98731 -9.25,-8.5 -9.0831,17.77783 -14.16252,36.05648 -11.25,56.5 -10.76208,-5.23792 -15.39287,-16.85713 -21,-27.25 l 2.75,21.5 c -12.01348,-10.73315 -20.94339,-17.57076 -30.75,-32 l -11,34 c 0,0 -2.52611,-4.95233 -5.5,-12.5 -3.93498,-9.9869 13,-30.5 13,-30.5 -15.32902,12.86061 -35.61748,-1.80611 -51.75,-3.25 l -8.75,8.25 c -14.57118,-9.28839 -25.49457,-26.67653 -24,-41.25 l -8,17.5 -4,-27.5 -9,12.5 -4,-19.5 c -2.41667,3 -3.50575,8.15805 -4.5,11.25 -1.36616,-23.95013 7.35867,-44.548 10.25,-57.5 l 9.25,-42.5 c 77.00882,-39.84248 154.3035,-79.94126 299,22 z"
           style="fill:#743d0e;fill-opacity:1;stroke:none"
           inkscape:connector-curvature="0" />
        <path
           style="fill:#9e560f;fill-opacity:1;stroke:none"
           d="m 520.17157,444.06929 12.35356,30.98959 -8.93934,-18.76777 c -1,10.55791 -6.68198,25.96293 -7.68198,41.33884 -1.07776,16.57148 19.7691,44.46604 35.09619,54.73223 l -21.82843,-16.94975 c 1.32838,22.94362 1.04912,45.83753 -3.05025,67.8033 -9.1293,-20.94584 -8.49175,-45.89305 -19.32843,-67.19238 l -3.5,39.96446 c -0.28061,-19.0758 -2.20513,-27.69849 -19.91421,-36.66116 3.06711,14.80088 6.26024,27.43959 8,39.58578 -16.29148,-14.16677 -39.76997,-45.89456 -31.55025,-81.49569 l -14.12132,59.22793 c 2.10489,-31.36421 -4.06404,-43.78485 -27.13909,-59.35356 l 1.91421,23.40686 -4.08578,8.93934 1.12868,44.94974 L 429,560.86218 l -11.39645,17.81802 -5.75,-31.32107 -13.18934,41.18198 -6.10355,-27.84314 c -10.5979,-2.52015 -6.94197,-1.19467 -7.48223,-19.81371 -9.0831,17.77783 -21.23359,50.55217 -14.07843,69.22792 -10.76208,-5.23792 -24.2317,-34.5348 -27.01041,-52.35229 2.41016,15.5341 5.40881,31.06819 8.76041,46.60229 -11.94697,-10.40061 -20.52675,-19.02307 -31.10355,-37.3033 l -11.5,35.79289 c 0,0 0.24165,-5.35613 -2.73224,-12.9038 -3.93498,-9.9869 17.8033,-32.24264 17.8033,-32.24264 -20.27876,18.16391 -51.52738,0.66876 -59.17462,-4.66422 -2.80775,6.84586 -1.19903,8.06845 -8.04289,13.90686 -14.57118,-9.28839 -26.20168,-32.33339 -21.52513,-51.50305 l -10.12132,24.92462 c -2.55239,-16.23774 -2.26203,-32.47547 2.71752,-48.7132 -2.87762,12.41926 -6.54544,24.31173 -15.01041,33.00609 -2.79982,-9.43654 -3.64906,-18.2735 -0.81802,-33.99569 -3.32628,9.59039 -3.67117,10.93071 -6.99264,22.19544 -0.51636,-19.30637 1.95892,-26.95021 5.75,-51.25 l 12,-40.25 c 77.00882,-39.84248 151.47507,-79.23415 296.17157,22.70711 z"
           id="path3735"
           sodipodi:nodetypes="cccsccccccccccccccccccccccccscccccccccccc"
           inkscape:connector-curvature="0" />
        <path
           style="fill:#743d0e;fill-opacity:1;stroke:none"
           d="m 225.4285,461.64731 c 0.63685,23.33249 5.33619,46.66499 24.5,69.99748 -11.66416,-30.3256 -3.26923,-48.61576 -3.02944,-71.79899 l 36.31371,81.2254 -16.20101,-85.00967 c 9.78178,29.53114 31.16166,58.94355 27.82842,88.49495 5.04673,-15.61278 0.42726,-37.02529 -0.52943,-56.24012 2.31596,15.95363 2.62468,50.81778 20.2132,66.66905 -26.61267,-118.84798 18.32449,-66.88693 8.88478,-19.76955 8.83291,3.53317 21.74823,-58.72426 20.45584,-68.85787 -1.13154,-8.87241 17.78427,101.73298 17.78427,101.73298 l 13.51472,-114.07612 c 4.09703,19.60512 1.42712,71.0937 0.25483,93.33347 l 26.1127,-98.71825 c 1.54618,22.28679 12.1822,33.66575 1.8995,70.14719 21.16433,-23.71567 24.94847,-53.22473 30.7132,-82.0736 7.7699,21.58045 16.69153,48.36315 10.71321,77.92641 l 20.22183,-48.08936 c 19.91163,1.12102 25.83159,7.13308 20.07107,21.48045 32.21543,-30.32802 7.28045,-62.38825 6.15075,-105.56981 L 225.4285,461.64731 z"
           id="path3741"
           sodipodi:nodetypes="cccccccccsccccccccccc"
           inkscape:connector-curvature="0" />
        <path
           style="fill:#290d00;fill-opacity:1;stroke:none"
           d="m 210.1215,605.50623 c -1.10348,36.82951 1.96273,74.84045 16.42031,105.5513 19.47076,-85.59971 147.74702,-227.24769 239.97161,-258.62594 L 455.14336,431.4194 C 368.74438,452.96288 244.56819,553.13908 210.1215,605.50623 z"
           id="path3821"
           sodipodi:nodetypes="ccccc"
           inkscape:connector-curvature="0" />
        <path
           sodipodi:nodetypes="ccccc"
           id="path3662"
           d="m 211.02,646.99058 c 0.37992,4.56536 2.3673,22.84948 3.97626,28.3358 C 274.72712,549.75225 382.6842,486.68934 460.32839,441.67549 l -2.34252,-5.00304 C 426.62463,453.84312 291.77087,515.79163 211.02,646.99058 z"
           style="fill:url(#linearGradient3703);fill-opacity:1;stroke:none"
           inkscape:connector-curvature="0" />
        <path
           style="fill:#130b07;fill-opacity:1;stroke:none"
           d="m 176,451.86218 c 18.15134,-16.08881 18.78049,-40.00697 19,-62.5 2.66403,-1.33202 -38.83924,-80.19188 -34,-105.5 6.11844,-31.99805 43.56688,-87.21569 48,-92 9.5309,-10.28593 43.42157,-31.93434 65.5,-44.5 8.96271,-5.10101 21.37324,-8.34384 32,-12.5 7.64701,-2.99077 89.45596,-3.31671 98.5,-1 9.90271,2.53667 35.80178,17.20119 56.5,27.5 9.00433,10.08117 19.83787,19.24773 31.5,28 -3.70127,54.93816 13.57243,108.57974 37,135 l -17.5,-13.5 c 1.14454,46.52213 -2.11675,89.2577 28.91421,117.91421 -8.7692,-3.12828 -18.94696,-7.68204 -26.41421,-13.41421 4.84745,18.65537 13.8627,33.97651 32,42 -8.37273,-0.38182 -17.34734,1.04203 -24.5,-3 l -7.5,14.5 c -4.53139,-12.11436 -8.17047,-25.71588 -16.5,-31.5 3.38697,13.70434 3.87664,35.54112 3.5,50.5 -3.98646,-14.95347 -15.29716,-25.02411 -23,-37.5 -0.003,18.33083 -2.70284,33.96383 -12,43 6.56777,-19.42583 1.72224,-30.29168 -2,-42 -3.23107,16.25565 -9.17914,25.71883 -15,35.5 -0.0833,-11.99278 -0.0346,-31.82102 -6.625,-34.60426 -4.33333,-1.83003 -4.79167,-3.70864 -1.375,9.10426 -19.19071,2.01603 -29.18313,-3.43347 -31.5,-11.5 2.91347,11.73206 -2.10129,20.29282 -5.5,29.5 l -4,-21 c -22.17335,7.57999 -43.01863,19.82402 -60,30 l -5,19.5 -8.5,-19.5 -7,21 -8.35355,-11.1967 -7.64645,28.1967 -19.5,-30 6.25,20.75 -22.25,-41.75 0,5.5 -12,-18.5 3,25 -7,-2 c 7.8698,10.33333 7.91948,20.66667 11,31 -15.51332,-16.08136 -31.8976,-30.94336 -41,-56 l -4.5,9.5 -8.5,-28.5 -8,22 c -4.59317,-18.61035 -19.77237,-10.93416 -14.5,2 -11.86342,-15.75761 15.83333,-36.16667 21.5,-65 -9.05957,20.88086 -19.29248,41.91505 -33,51.5 z"
           id="path2928"
           sodipodi:nodetypes="ccssssscccccccccccccccsccccccccccccccccccccccccc"
           inkscape:connector-curvature="0" />
        <path
           sodipodi:nodetypes="ccsssscssssscssscssscscccssssccccccccsssscccccccccccsccccccccccccccccccccccccc"
           id="path3696"
           d="m 181,448.86218 c 18.15134,-16.08881 13.78049,-37.00697 14,-59.5 2.66403,-1.33202 -36.33924,-80.69188 -31.5,-106 6.11844,-31.99805 41.77399,-84.59437 46.20711,-89.37868 0.59568,-0.64287 1.28652,-1.33013 2.06368,-2.05677 0.77716,-0.72665 1.64064,-1.49269 2.58162,-2.29314 0.94098,-0.80044 -4.79055,17.36471 -0.45341,28.75046 -2.41287,-12.61426 5.74293,-33.00792 6.95855,-33.92601 1.21563,-0.91808 2.49109,-1.86058 3.81755,-2.82251 1.32646,-0.96193 2.70391,-1.94329 4.12354,-2.93908 1.41963,-0.99579 2.88143,-2.00602 4.37656,-3.02569 1.49513,-1.01968 3.02361,-2.04879 4.57659,-3.08236 1.55298,-1.03357 -8.22309,40.04363 -6.27638,57.39093 -0.35137,-17.12417 14.202,-62.57443 15.81769,-63.60584 1.61568,-1.03142 3.23821,-2.0573 4.85875,-3.07266 1.62054,-1.01536 3.23909,-2.0202 4.84683,-3.00953 1.60774,-0.98932 -5.98773,14.65388 -4.0569,24.30717 1.22371,-5.19595 11.97373,-29.10972 13.50287,-30.01702 1.52914,-0.90731 3.02981,-1.78912 4.49316,-2.64044 1.46335,-0.85132 2.8894,-1.67216 4.2693,-2.45751 1.12034,-0.63763 -0.78155,8.90944 -0.82874,18.91881 2.40986,-12.08497 6.58852,-21.89632 7.78404,-22.43946 1.19552,-0.54315 2.4079,-1.06808 3.63521,-1.58022 1.22732,-0.51214 -9.1977,15.60552 -8.64956,41.27651 1.25525,-24.88714 14.89786,-43.7565 16.17718,-44.23912 1.27932,-0.48261 2.5697,-0.96326 3.86922,-1.44734 1.29952,-0.48409 2.60818,-0.97163 3.92405,-1.46802 1.31586,-0.49639 2.63893,-1.00164 3.96728,-1.52116 7.64701,-2.99077 88.74885,-2.6096 97.79289,-0.29289 9.90271,2.53667 34.38757,15.07987 55.08579,25.37868 9.00433,10.08117 21.25208,18.54062 32.91421,27.29289 -3.70127,54.93816 17.10796,105.75131 40.53553,132.17157 l -20.41681,-12.7045 -9.09328,-2.10229 -12.0367,12.73339 12.59586,-10.30117 8.64674,1.65982 c 0.0395,1.46333 0.16959,4.52187 0.21413,5.99262 0.089,2.94148 0.18929,5.8957 0.30573,8.85427 0.23289,5.91714 0.53052,11.85168 0.93257,17.73658 0.8041,11.76979 2.02588,23.34097 3.98274,34.17708 3.91372,21.67221 10.76775,40.40412 23.10125,51.90395 -8.7692,-3.12828 -19.30051,-13.3389 -26.76776,-19.07107 4.84745,18.65537 13.15559,37.51205 31.29289,45.53554 -8.37273,-0.38182 -14.51891,-1.07929 -21.67157,-5.12132 l -6.79289,16.62132 c -4.53139,-12.11436 -10.29179,-27.8372 -18.62132,-33.62132 3.38697,13.70434 4.58374,34.83401 4.2071,49.79289 -3.98646,-14.95347 -15.29716,-25.02411 -23,-37.5 -0.003,18.33083 -1.28862,34.67094 -10.58578,43.70711 6.56777,-19.42583 1.72224,-30.99879 -2,-42.70711 -3.23107,16.25565 -9.17914,27.13304 -15,36.91421 -0.0833,-11.99278 -0.74171,-32.52812 -7.33211,-35.31136 -4.33333,-1.83003 -6.91299,-0.88022 -3.49632,11.93268 -19.19071,2.01603 -28.47602,-4.84768 -30.79289,-12.91421 2.91347,11.73206 1.08069,25.94968 -2.31802,35.15686 l -5.06066,-25.24265 c -22.17335,7.57999 -45.13995,19.11692 -62.12132,29.2929 L 336,507.15507 326.79289,484.11954 320.5,507.94797 l -8,-17.91422 -9.01777,31.31802 -21.31066,-32.76776 4.82843,21.52817 -18.70711,-41.11396 -2.82842,5.5 -9.87868,-16.37868 2.29289,25 -9.12132,0.12132 c 7.8698,10.33333 8.16212,16.20956 11.24264,26.54289 -15.51332,-16.08136 -28.33694,-29.75401 -38.20711,-56.9571 L 219,460.70533 l -9,-23.58579 -7.75,22.57843 c -4.59317,-18.61035 -21.27237,-9.26995 -16,3.66421 -11.86342,-15.75761 17.08333,-34.16667 22.75,-63 -9.05957,20.88086 -14.29248,38.91505 -28,48.5 z"
           style="fill:#643812;fill-opacity:1;stroke:none"
           inkscape:connector-curvature="0" />
        <path
           style="fill:#743d0e;fill-opacity:1;stroke:none"
           d="m 180.5,435.86218 c 18.15134,-16.08881 14.28049,-24.00697 14.5,-46.5 2.66403,-1.33202 -32.83924,-76.19188 -28,-101.5 3.05922,-15.99902 12.62772,-38.27262 21.98555,-57.14449 9.35783,-18.87188 18.505,-34.34203 20.72156,-36.73419 0.59568,-0.64287 1.28652,-1.33013 2.06368,-2.05677 0.77716,-0.72665 1.64064,-1.49269 2.58162,-2.29314 0.94098,-0.80044 -4.79055,17.36471 -0.45341,28.75046 -2.41287,-12.61426 5.74293,-33.00792 6.95855,-33.92601 1.21563,-0.91808 2.49109,-1.86058 3.81755,-2.82251 1.32646,-0.96193 2.70391,-1.94329 4.12354,-2.93908 1.41963,-0.99579 2.88143,-2.00602 4.37656,-3.02569 1.49513,-1.01968 3.02361,-2.04879 4.57659,-3.08236 1.55298,-1.03357 -8.22309,40.04363 -6.27638,57.39093 -0.35137,-17.12417 14.202,-62.57443 15.81769,-63.60584 1.61568,-1.03142 3.23821,-2.0573 4.85875,-3.07266 1.62054,-1.01536 3.23909,-2.0202 4.84683,-3.00953 -14.39226,35.01068 -10.47386,65.44316 -9.21807,85.58356 -0.3724,-31.45331 0.3641,-52.88611 18.66404,-91.29341 1.7712,-0.15602 3.02981,-1.78912 4.49316,-2.64044 1.46335,-0.85132 2.8894,-1.67216 4.2693,-2.45751 1.12034,-0.63763 -0.78155,8.90944 -0.82874,18.91881 2.40986,-12.08497 6.58852,-21.89632 7.78404,-22.43946 1.19552,-0.54315 2.4079,-1.06808 3.63521,-1.58022 0.0938,-0.88997 -13.85837,20.33445 -10.94245,49.38742 13.25525,-27.88714 17.19075,-51.86741 18.47007,-52.35003 1.27932,-0.48261 2.5697,-0.96326 3.86922,-1.44734 1.29952,-0.48409 2.60818,-0.97163 3.92405,-1.46802 1.31586,-0.49639 2.63893,-1.00164 3.96728,-1.52116 3.82351,-1.49538 26.01072,-2.14778 48.37256,-2.13675 2.79523,0.001 5.59319,0.0131 8.35835,0.0349 2.76516,0.0218 5.49753,0.0535 8.16157,0.095 2.66404,0.0414 5.25976,0.0926 7.75163,0.15297 2.49187,0.0604 4.8799,0.13016 7.12855,0.20885 -17.7011,10.16449 -33.31365,27.44885 -53.75795,58.64132 18.70214,-23.59609 50.24411,-49.67752 65.29316,-58.06437 1.54905,0.11315 2.88768,0.23456 3.98036,0.36388 1.09268,0.12932 1.93941,0.26656 2.50466,0.41135 1.23784,0.31708 2.70352,0.79052 4.36118,1.39638 1.65765,0.60586 3.50728,1.34414 5.51299,2.19092 2.00572,0.84679 4.16753,1.80207 6.44956,2.84191 2.28202,1.03985 4.68427,2.16427 7.17085,3.34933 2.48658,1.18506 -40.4425,16.43076 -55.82311,41.71317 15.61939,-14.71758 61.78724,-34.39846 64.46767,-33.06654 2.68044,1.33192 6.17771,1.68084 8.0432,4.01018 2.66973,3.33356 7.31617,14.65598 12.90345,9.94333 9.00433,10.08117 24.00785,18.46594 25.91421,28.29289 14.40068,74.23298 11.57243,85.45842 35,111.87868 l -15.62132,-3.91422 c 0,0 -13.48036,12.80818 -13.48036,12.80818 0,0 -10.74338,-10.54048 -10.74338,-10.54048 0,0 11.07373,18.33306 11.09743,19.06126 0.0237,0.7282 4.13418,-6.29275 4.13418,-6.29275 l 10.86833,-9.83494 c -0.40365,2.88909 1.50209,10.07227 1.67557,12.98085 0.34695,5.81714 0.80753,11.60885 1.40513,17.32233 1.19518,11.42696 2.93841,22.54103 5.41672,32.92003 4.95662,20.758 12.85354,38.57569 25.18704,50.07552 -8.7692,-3.12828 -16.47209,-7.68204 -23.93934,-13.41421 4.84745,18.65537 14.5698,35.74428 32.7071,43.76777 -8.37273,-0.38182 -15.93312,0.68848 -23.08578,-3.35355 l -6.79289,16.62132 c -4.53139,-12.11436 -10.29179,-27.8372 -18.62132,-33.62132 3.38697,13.70434 4.58374,34.83401 4.2071,49.79289 -3.98646,-14.95347 -15.29716,-25.02411 -23,-37.5 -0.003,18.33083 -1.28862,34.67094 -10.58578,43.70711 6.56777,-19.42583 1.72224,-30.99879 -2,-42.70711 -3.23107,16.25565 -9.17914,27.13304 -15,36.91421 -0.0833,-11.99278 -0.74171,-32.52812 -7.33211,-35.31136 -4.33333,-1.83003 -6.91299,-0.88022 -3.49632,11.93268 -19.19071,2.01603 -29.72602,-8.09768 -32.04289,-16.16421 2.91347,11.73206 3.03779,23.89638 -0.36092,33.10356 l -5.76776,-20.93935 c -27.2177,4.21709 -47.9572,18.23876 -62.12132,30.2929 L 336,507.15507 326.79289,484.11954 320.5,503.70533 l -7.64645,-21.0962 -9.45711,34.5 -21.22487,-28.52512 7.82843,27.27817 -21.70711,-46.86396 -2.82842,5.5 -9.87868,-16.37868 2.29289,25 -9.12132,0.12132 c 7.8698,10.33333 8.07633,15.03799 11.15685,25.37132 -14.0991,-18.20268 -24.27628,-37.05732 -37.62132,-59.28553 l -5.04289,-6.87132 -7.25,-5.33579 -8,20.57843 c -4.59317,-18.61035 -22.02237,-9.76995 -16.75,3.16421 -11.86342,-15.75761 18.08333,-31.66667 23.75,-60.5 -9.05957,20.88086 -14.79248,25.91505 -28.5,35.5 z"
           id="path3700"
           sodipodi:nodetypes="ccssssscssssscsscccsscscccsssssssccccssssccsscscccccccssscccccccccccsccccccccccccccccccccccccc"
           inkscape:connector-curvature="0" />
        <path
           style="fill:#9e560f;fill-opacity:1;stroke:none"
           d="m 332.72184,256.49823 c 5.00673,-23.13757 80.36685,-81.77558 124.39948,-76.30762 5.10528,0.63397 20.37868,16.67157 20.37868,16.67157 4.8359,37.29974 12.33764,77.0329 37,111 l -15,-6.5 c 0,0 -11.50559,13.34762 -11.50559,13.34762 0,0 -16.64442,-13.52592 -16.64442,-13.52592 0,0 -9.23137,18.11348 -9.23137,18.11348 0,0 10.81938,-15.32622 10.81938,-15.32622 0,0 15.87924,27.12906 15.87924,27.12906 0,0 4.11467,-9.23793 4.11467,-9.23793 0,0 8.97292,-4.33455 8.97292,-4.33455 0,0 1.33463,10.64086 1.95303,15.87628 0.6184,5.23542 1.22553,10.40994 1.88545,15.51087 0.65992,5.10092 1.37263,10.12825 2.20216,15.06929 3.31813,19.76416 8.50553,38.14768 19.66109,54.33817 -9.4379,-3.42285 -16.04738,-12.8236 -24.07107,-20.77817 16.89033,21.0556 6.90018,37.28626 34.27818,57.24264 -6.79531,-3.76056 -14.89752,-1.64004 -20.02082,-12.92462 4.70093,7.99202 -0.51435,14.56745 -1.7071,21.71751 -2.56068,-13.75563 -11.50477,-29.13371 -23.58579,-39.21751 3.32117,14.34562 6.70689,28.6751 6.35355,43.93934 -5.59652,-12.94597 -13.25617,-25.20423 -24.5,-36.26777 4.85467,17.38898 1.81911,44.9142 -3.32842,52.28859 2.83016,-22.14733 -2.38806,-33.32259 -6.87868,-56.66727 0.6432,22.96477 -3.64183,39.90551 -11.64645,49.20711 -0.81105,-9.78106 0.7893,-20.54816 -5.64645,-28.27208 -7.47698,-8.97356 -13.32999,0.58961 -10.02512,10.18629 0,0 -18.20614,6.29362 -30.32843,-17.91421 4.35873,10.49101 -0.21994,31.75853 -1,30.32843 l -3.81802,-16.9896 c -40.45618,9.00737 -45.72264,19.61087 -62.88909,31.28249 0,0 -2.1329,11.29635 -4.79289,10.87868 -3.58317,-0.56262 -9.68924,-33.15294 -8.64645,-33.93503 2.17582,15.83097 -1.59487,25.2426 -5.79289,36.52082 -8.06743,-12.58462 -4.71863,-33.45927 -5.17157,-51.96626 -2.6747,22.81206 -4.18087,45.91626 -10.38909,67.84494 l -24.5,-35.46447 c 0,0 4.5,17.5 2.5,15 -2,-2.5 -17,-38 -17,-38 l -10,-4 1.5,28 -11.5,1.5 12,21.5 c -10.69571,-16.1661 -22.55962,-21.08788 -32,-48.8033 -8.43192,-24.75475 3.45128,-108.06909 15.94809,-91.57616 17.20974,22.71293 53.31987,30.91759 71.04733,12.17213 11.43592,-12.09264 57.7324,-65.331 118.79924,15.86411 -6.1083,-35.83107 -29.20828,-48.5381 -45.94829,-54.4069 70.06724,-19.65745 -33.46418,-0.91584 12.97873,-23.5903 7.00679,-3.42087 20.89489,-6.87018 9.59421,-9.99868 -9.86398,-2.73076 -78.94556,13.78352 -32.93498,-25.54748 7.26736,-6.21232 26.30014,-31.18472 91.11742,-18.36556 -26.99375,-16.18986 -60.60436,-14.21507 -66.13195,-11.35616 -2.86175,1.48013 9.20934,-6.27499 13.86509,-11.15317 -4.18307,1.48579 -32.58945,13.59128 -38.26841,15.62389 4.92765,-6.09911 26.09482,-19.79016 56.98352,-33.28511 -4.35837,-0.0968 -30.69334,4.41619 -78.90309,37.80642 2.87315,-5.85491 13.8038,-15.21711 5.79169,-18.98529 -6.62289,-3.11482 -21.7795,12.43253 -26.21676,18.73761 l 4e-5,0 z"
           id="path3718"
           sodipodi:nodetypes="csccccccccccssscccccccccccscccccscccccscccccsssccssscsccccscc"
           inkscape:connector-curvature="0" />
        <path
           style="fill:#5d3310;fill-opacity:1;stroke:none"
           d="m 312.40263,186.58278 c -13.95358,19.72829 -24.63332,58.36313 -25.45584,75.66043 10.90224,-21.83675 22.9185,-40.33976 43.85103,-69.08936 -24.55734,38.55198 -44.18458,81.39074 -56.57895,128.48633 l 18.38477,-31.81981 0.70711,11.31371 6.36396,-20.5061 0,12.72792 c 7.70375,-23.18809 40.45392,-86.2704 118.86501,-106.60155 -63.7982,23.15295 -103.49764,71.42512 -118.86501,124.27922 12.54946,-16.72137 24.75833,-30.71801 38.18377,-54.44722 -3.56163,9.70294 -4.43569,15.37453 -4.24264,19.44544 24.95103,-25.59022 58.0238,-41.43434 92.27744,-55.86144 -30.24676,14.47416 -54.74714,27.28798 -66.8216,44.19418 12.454,-10.26208 49.49748,-25.1023 49.49748,-25.1023 -5.37032,3.96072 -11.54535,6.12928 -13.43503,10.96016 29.04749,-7.29382 60.0703,4.1149 63.28606,6.36396 -52.51891,-20.04868 -124.38323,13.70906 -146.37111,62.93251 -2.6931,6.02894 -5.07777,12.48205 -4.94975,20.5061 8.23788,-33.08727 63.9874,-34.25203 97.22719,-31.11271 -48.55161,1.97796 -55.40641,13.22188 -62.57895,24.39519 27.47709,-1.21407 71.69368,8.99415 85.91347,51.26524 -18.53886,-31.13644 -45.24859,-40.43185 -65.76093,-40.65864 19.44754,7.89362 33.30834,19.49518 37.47665,43.84062 -13.63297,-15.00393 -21.6458,-31.99974 -43.13351,-33.58757 l -24.74873,16.97056 c 14.04946,7.42059 28.62138,13.53507 44.54772,16.26346 -18.73519,-0.1452 -31.65451,-7.26943 -45.96194,-12.72793 3.52041,11.72997 17.9708,20.72744 28.28427,30.75915 -13.96602,-9.09264 -27.70579,-18.71319 -38.89087,-34.29468 l -63.63961,0 c -8.66178,37.2175 -11.37007,77.5235 -3.18198,117.37973 -19.92629,-30.43915 -12.09154,-70.05071 -13.78858,-101.82338 -1.13972,31.09082 -10.73252,61.24241 3.53553,94.04521 -17.06458,-27.40105 -13.14308,-54.80346 -13.43503,-84.85282 -5.4547,22.2487 -27.8467,48.12038 -29.59923,73.14571 -12.60431,-26.20185 15.73847,-55.56713 18.63907,-76.68124 -8.43398,6.90467 -12.67345,23.33119 -18.9203,35.88046 0.75828,-11.74066 0.94961,-24.09642 5.83883,-36.58757 -3.57075,3.97172 -6.56331,8.52163 -9.19239,13.43502 -0.87213,-16.08276 7.56777,-29.06151 14.84925,-42.4264 -22.26515,-11.58398 -30.4277,-35.10093 -41.0122,-56.56854 0,0 20.90294,28.52442 26.87006,26.87005 -7.15575,-7.45414 -16.3243,-41.72019 -16.97056,-61.51829 2.88715,15.32391 7.03033,39.779 29.69848,44.54773 -5.24193,-32.93523 -7.63924,-66.3081 -0.7071,-101.11627 -2.17943,30.10101 2.54523,63.70645 11.66725,91.92388 -5.08384,-29.84768 -9.94852,-65.02998 -2.12131,-94.39875 -2.68265,29.54268 4.77412,73.09529 21.92031,100.76271 -4.5522,-30.48298 -7.81587,-61.22962 -4.82842,-91.2419 -0.36519,40.55242 7.64937,77.93221 11.89949,113.16221 4.11487,-34.50756 -5.13338,-51.60199 -10.43503,-91.34849 8.95551,23.37114 14.97357,27.13737 18.56676,58.11447 -6.08263,-38.79793 -3.96408,-67.98819 2.12131,-98.28784 2.31319,33.64952 3.09457,66.99267 0.70711,99.70206 3.033,-42.35349 2.73683,-96.40673 37.47666,-140.00714 -28.88759,60.94525 -23.44961,125.8513 -27.93071,181.37289 3.52793,-52.31692 10.83546,-114.43638 44.90127,-158.03837 z"
           id="path3692"
           sodipodi:nodetypes="cccccccccccccccccscccccccccccccccccccccccccccccccccccccccc"
           inkscape:connector-curvature="0" />
        <path
           style="fill:#371e12;fill-opacity:1;stroke:none"
           d="m 239.21708,443.96965 17.14734,-47.72971 3.18198,35.00179 c 3.2291,-14.85919 -0.94882,-54.29412 10.96016,-54.80078 l 55.3311,-3.18198 c 8.04677,20.78982 22.76531,41.85763 20.68288,62.2254 4.81027,-16.30373 -8.84632,-41.57573 -16.26346,-63.99316 l 21.21321,28.81459 -15.2028,-26.5165 15.73312,5.83363 -17.67767,-21.2132 35.35534,-6.36396 c 10.73192,1.56858 22.73514,17.00094 25.45585,24.92551 -2.76406,-14.42346 -13.78022,-24.78972 -23.33453,-29.16815 12.29082,-2.37805 28.43708,4.00711 31.64303,10.96015 -3.19058,-12.5255 -20.07984,-14.2553 -38.36054,-16.26346 7.90503,-7.60903 28.55784,-9.88828 39.95153,-14.49568 -13.67073,0.60363 -27.34146,-0.91822 -41.01219,3.53553 7.06226,-7.76534 14.58273,-20.92595 40.30509,-26.16295 -20.93367,-0.009 -36.18893,8.97248 -51.6188,17.67767 -7.15228,-18.68661 5.21727,-36.92954 18.38478,-55.15433 -16.69081,10.59811 -28.77473,23.82872 -38.89088,38.18377 l 3.53554,-12.02082 -21.21321,24.04163 c 0.41017,-8.09925 5.40221,-15.6894 9.8995,-23.33452 -7.29458,7.90212 -16.0007,15.09848 -19.79899,24.74874 -2.99353,-0.99451 -2.68389,-6.61346 -3.53553,-10.60661 -1.41422,7.30677 -2.82843,14.61354 -4.24265,21.92031 -0.14824,-10.32148 -0.47284,-20.58418 2.12132,-31.8198 -3.11137,7.3916 -6.25688,14.77638 -7.07106,22.62742 -1.11862,-6.70351 -0.75144,-14.52136 0,-22.62742 -3.52843,9.30668 -5.83117,18.00053 -8.48529,26.87006 -0.4587,-17.13194 1.19911,-35.44078 6.36397,-54.44723 -4.83003,11.31371 -10.73784,22.62742 -12.02082,33.94113 -8.29977,-34.64823 -9.12361,-69.29647 1.41422,-103.9447 -12.09987,28.93892 -21.7556,58.2852 -22.62742,89.09546 l -17.67767,-41.7193 10.6066,46.66905 c -6.51447,-8.4501 -11.48894,-17.3402 -13.34924,-27.12006 -0.20653,16.99651 1.2142,34.7006 6.98528,50.45458 -6.2093,-5.76964 -9.23677,-14.08474 -12.18503,-22.4632 1.22472,14.27444 4.96787,28.03045 10.77082,38.72666 -11.81613,-5.14557 -18.05343,-17.46394 -25.45585,-28.28428 1.52005,10.3709 3.6627,20.7418 8.48528,31.1127 -12.38091,-7.24239 -23.4286,-15.5958 -31.8198,-26.16295 4.75628,13.34971 14.01612,23.88469 24.04163,33.94113 l -28.99138,4.24264 31.81981,2.82842 -21.92031,5.65686 32.52691,7.77817 c -13.523,7.69423 -25.10811,15.48568 -32.17336,26.87006 6.27322,-7.51014 11.22824,-11.58141 22.98097,-14.84924 -8.65893,9.19239 -13.9308,18.38477 -18.38478,27.57716 4.72952,-5.39021 9.14048,-11.41752 15.55635,-13.43503 -4.03925,6.59428 -5.45266,13.6262 -6.71751,20.68287 2.45893,-7.57683 5.25128,-14.96314 10.96015,-20.68287 -4.934,8.01388 -5.55098,16.02776 -6.36396,24.04164 2.70396,-7.66508 4.1413,-16.19886 9.8995,-21.21321 l -7.77818,29.69849 14.14214,-24.92552 -1.41422,26.33973 c 1.82946,-7.89547 5.29594,-15.1807 10.42983,-22.27387 l -2.2981,39.95154 z"
           id="path3690"
           sodipodi:nodetypes="ccccccccccccccccccccccccccccccccccccccccccccccccccccccccccccccc"
           inkscape:connector-curvature="0" />
        <path
           style="fill:#9e560f;fill-opacity:1;stroke:none"
           d="m 204,208.36218 c -7.96681,15.73305 -17.4303,28.47274 -23,49 0.11122,15.47776 3.57052,37.3859 23,50.5 -7.40467,-14.11042 -16.90166,-27.68727 -10,-47 0.99916,7.77973 2.02688,9.99283 7,14.5 -5.8812,-15.88994 -6.06418,-44.33333 3,-67 z"
           id="path3704"
           sodipodi:nodetypes="cccccc"
           inkscape:connector-curvature="0" />
        <path
           style="fill:#9e560f;fill-opacity:1;stroke:none"
           d="m 224.5,185.86218 c 3.21126,-2.12207 4.03554,-4.63112 8.5,-5.5 -6.5142,20.82978 -8.39455,48.94303 -9,70 -4.58773,-17.46315 -3.03585,-40.13799 0.5,-64.5 z"
           id="path3706"
           sodipodi:nodetypes="cccc"
           inkscape:connector-curvature="0" />
        <path
           style="fill:#9e560f;fill-opacity:1;stroke:none"
           d="m 267.5,158.36218 4.5,-3.5 c -1.22013,12.72327 -1.44264,25.94535 0,40 -5.35433,-8.42509 -1.95936,-4.87283 -8.5,-11 -1.61216,-1.51025 6.04705,26.4708 -1.04339,55.11743 1.67831,-16.72691 -1.14805,-28.98515 -4.87082,-43.94586 -4.59446,10.95394 -3.13114,17.49328 -5.96447,25.0962 0.44326,-27.16432 6.99543,-47.88436 15.87868,-61.76777 z"
           id="path3708"
           sodipodi:nodetypes="cccscccc"
           inkscape:connector-curvature="0" />
        <path
           style="fill:#9e560f;fill-opacity:1;stroke:none"
           d="m 308,139.86218 c 14.72939,-1.72939 37.13488,-5.13488 61.5,-2 -38.39032,35.00796 -44.53036,58.79393 -64.5,87.5 0,0 4.26494,-14.34914 1.1967,-10.98959 -5.22982,5.72635 -10.6967,24.98959 -10.6967,24.98959 1.59877,-17.6214 10.9558,-42.12901 22.5,-60.41421 -10.96377,10.58397 -18.70093,22.23973 -23.97855,32.38908 0.90625,-13.78739 -3.70953,-12.995 -13.4931,14.52596 -1.11508,3.1367 -2.2973,6.62062 -3.54612,10.46973 2.78265,-22.63402 17.02841,-64.04325 25.01777,-81.47056 -3.83333,0.71885 -9.16667,7.38126 -13,12 5.65038,-11.22682 10.87969,-18.38521 19,-27 z"
           id="path3710"
           sodipodi:nodetypes="cccscccscccc"
           inkscape:connector-curvature="0" />
        <path
           style="fill:#9e560f;fill-opacity:1;stroke:none"
           d="m 398.91421,145.09441 c -20.07409,25.03901 -24.77526,39.72727 -35.15075,55.42894 -13.34171,8.60382 -26.47631,29.04754 -38.40381,42.93324 -3.96069,-14.28653 -11.93534,-9.45864 -30.27386,29.05204 19.62628,-50.50652 46.12112,-94.555 103.82842,-127.41422 z"
           id="path3712"
           sodipodi:nodetypes="ccccc"
           inkscape:connector-curvature="0" />
        <path
           style="fill:#9e560f;fill-opacity:1;stroke:none"
           d="m 433,160.86218 c 5.10942,2.83909 16.73999,11.41522 21.69239,17.86396 -66.08883,1.28342 -101.99864,40.51001 -124.19239,55.63604 15.04385,-44.23101 90.50737,-74.9828 102.5,-73.5 z"
           id="path3714"
           sodipodi:nodetypes="cccc"
           inkscape:connector-curvature="0" />
        <g
           id="g3727"
           transform="matrix(0.99873788,0.05022602,-0.05022602,0.99873788,-34.777588,-55.934084)">
          <path
             style="fill:#5d3310;fill-opacity:1;stroke:none"
             d="m 373.57023,406.51527 c 1.87639,3.17273 -12.84073,13.90525 -14.70383,15.90121 -0.8662,3.03494 -1.30152,5.7568 -0.20883,10.92895 -4.07221,1.82373 -7.76324,3.96001 -11.48979,5.84487 1.61364,7.05546 5.82694,17.00908 3.4608,28.77576 0.0813,-10.80931 -9.10021,-28.39887 -10.0099,-32.81818 3.55145,-1.9916 6.72488,-3.1482 11.3064,-4.68277 -0.34265,-3.64068 -1.16303,-4.90325 -1.48367,-5.79078 -7.76454,1.55013 -28.7353,1.16988 -27.01164,-4.96524 1.30444,-4.64296 5.5299,-4.13763 20.25014,-10.21972 11.36469,-4.69565 26.47401,-8.75062 29.89032,-2.9741 z"
             id="path3725"
             inkscape:transform-center-y="2.8132601"
             sodipodi:nodetypes="ccccccccsss"
             inkscape:connector-curvature="0" />
          <path
             sodipodi:nodetypes="ccccccccsss"
             inkscape:transform-center-y="2.8132601"
             id="path3722"
             d="m 380.56134,404.74769 c 2.78813,5.57262 -24.44494,17.91879 -24.44494,17.91879 0,0 0.19848,4.7568 1.29117,9.92895 -4.07221,1.82373 -8.76324,3.96001 -12.48979,5.84487 1.61364,7.05546 6.9458,19.40298 5.56585,30.86975 -2.20499,-16.4516 -8.95526,-29.74286 -9.86495,-34.16217 3.55145,-1.9916 6.72488,-3.1482 11.3064,-4.68277 -0.34265,-3.64068 -1.16303,-4.90325 -1.48367,-5.79078 -7.76454,1.55013 -37.74184,3.15317 -36.48621,-4.03906 1.1315,-6.4812 10.03582,-6.81584 34.64306,-13.39514 11.87927,-3.17619 28.57477,-9.26463 31.96308,-2.49244 z"
             style="fill:#000000;fill-opacity:1;stroke:none"
             inkscape:connector-curvature="0" />
        </g>
        <path
           sodipodi:type="arc"
           style="fill:#ffffff;fill-opacity:1;stroke:none"
           id="path3731"
           sodipodi:cx="365.75"
           sodipodi:cy="412.11218"
           sodipodi:rx="5.25"
           sodipodi:ry="2.75"
           d="m 371,412.11218 c 0,1.51879 -2.35051,2.75 -5.25,2.75 -2.89949,0 -5.25,-1.23121 -5.25,-2.75 0,-1.51878 2.35051,-2.75 5.25,-2.75 2.89949,0 5.25,1.23122 5.25,2.75 z"
           transform="matrix(0.98521175,-0.17134118,0.10903529,0.62695294,-93.52597,173.90528)" />
        <path
           style="fill:#130b07;fill-opacity:1;stroke:none"
           d="m 269.875,361.36218 c -32.97079,-3.42134 -107.86276,-4.41247 -108.375,26.5 -5.32258,-27.05145 4.04448,-26.82216 7,-38.5 -6.40799,2.57595 -13.68451,6.20094 -19,13.5 4.87109,-9.00376 13.02739,-20.95142 35.5,-23.625 -1.87361,-2.29722 -4.32598,-2.2794 -6.5,-3.375 4.5,0.0257 9,-0.13253 13.5,1.5 1.15817,-4.93028 -1,-4.33333 -1.5,-6.5 7.09297,1.04271 12.54456,4.27392 18.75,6.5 -0.62482,-2.72514 -3.89773,-3.33182 -6,-4.875 6.30855,1.12445 12.47781,2.59715 18.125,5.375 -1.74011,-3.9654 -6.28195,-6.4117 -11.375,-7.5 8.56002,0.17405 13.96645,3.85209 19.625,7.25 -0.43288,-1.41667 -2.28683,-2.83333 -3.625,-4.25 4.6051,1.00187 10.16815,3.91963 15.375,6.125 -0.42581,-2.05651 -3.33286,-3.61676 -5.25,-5.375 5.73185,0.73926 12.46184,2.73597 17.875,4.75 -0.4708,-1.12749 -2.38535,-2.54374 -4.5,-4 2.05343,0.39315 4.25236,0.49527 6,1.5 -2.02852,-5.31432 -6.60777,-8.92815 -10.5,-13 4.82296,2.89581 9.63062,5.80181 12.5,10 l -4,-10 c 3.43717,4.5 6.82255,9.04577 10,13.5 3.95611,5.54577 12.74483,25.16099 6.375,24.5 z"
           id="path3737"
           sodipodi:nodetypes="ccccccccccccccccccccccss"
           inkscape:connector-curvature="0" />
        <path
           style="fill:#130b07;fill-opacity:1;stroke:none"
           d="m 291.75,359.36218 c -5.74344,4.83391 -5.75,-19.20833 -11.25,-30.75 l 7.25,12.25 0.5,-8.5 1.5,6 1.75,-14.25 0,9 2.25,-9.75 0.5,6.75 2.5,-9.25 1.75,5.25 c 4.137,-5.07715 7.08422,-10.36497 7.375,-17.125 1.88405,3.09488 3.14014,6.11127 2.375,8.875 9.79327,-9.4936 19.60553,-18.91123 28.75,-31 l -1.5,5 c 2.54837,-3.93279 5.10024,-7.86675 8.625,-12.125 l -1.125,5.875 c 3.37546,-5.58333 8.82771,-11.16667 14.5,-16.75 -0.86319,2.4658 -2.35305,5.08826 -2,7.25 20.47034,2.09889 45.11314,-1.91526 64.94975,-3.93566 L 401.25,279.86218 c 7.95211,1.72079 16.66097,1.92807 25.25,2.375 l -17.5,3.125 c 14.70227,12.37089 22.95631,28.45345 33,43.75 -46.22365,-55.94391 -119.81806,6.0633 -150.25,30.25 z"
           id="path3739"
           sodipodi:nodetypes="ccccccccccccccccccccccccc"
           inkscape:connector-curvature="0" />
        <path
           style="fill:#150a00;fill-opacity:1;stroke:none"
           d="m 261.7483,374.5972 c 0,11.13908 -8.05364,22.49629 -18.94204,22.49629 -10.88839,0 -22.03462,-13.68442 -22.03462,-24.8235 0,-11.13907 10.37308,-14.73895 21.26147,-14.73895 10.8884,0 19.71519,5.92708 19.71519,17.06616 z"
           id="path3743"
           sodipodi:nodetypes="csssc"
           inkscape:connector-curvature="0" />
        <path
           sodipodi:nodetypes="csssc"
           id="path3748"
           d="m 260.4983,374.76876 c 0,10.4352 -7.75882,21.07473 -18.24864,21.07473 -10.48981,0 -21.22802,-12.81968 -21.22802,-23.25488 0,-10.43517 9.99336,-13.80757 20.48317,-13.80757 10.48981,0 18.99349,5.55254 18.99349,15.98772 z"
           style="fill:#1d140b;fill-opacity:1;stroke:none"
           inkscape:connector-curvature="0" />
        <path
           style="fill:#281400;fill-opacity:1;stroke:none"
           d="m 260.4983,375.90602 c 0,9.87208 -7.36574,19.93747 -17.32411,19.93747 -9.95837,0 -20.15255,-12.12789 -20.15255,-21.99998 0,-9.87205 9.48707,-13.06247 19.44543,-13.06247 9.95837,0 18.03123,5.25291 18.03123,15.12498 z"
           id="path3750"
           sodipodi:nodetypes="csssc"
           inkscape:connector-curvature="0" />
        <path
           sodipodi:nodetypes="csssc"
           id="path3752"
           d="m 258.2483,374.92562 c 0,8.25314 -6.4813,16.66787 -15.24393,16.66787 -8.76261,0 -17.73273,-10.139 -17.73273,-18.39213 0,-8.25311 8.34791,-10.92032 17.11053,-10.92032 8.76261,0 15.86613,4.39147 15.86613,12.64458 z"
           style="fill:#361b00;fill-opacity:1;stroke:none"
           inkscape:connector-curvature="0" />
        <path
           style="fill:#130b07;fill-opacity:1;stroke:none"
           d="m 180,367.36218 c 31.41021,-7.26671 79.81496,-2.65811 89.81653,-2.11427 3.76055,0.20448 3.93908,-12.68561 -2.68912,-16.38558 C 235.6331,348.71335 200.7937,354.36561 180,367.36218 z"
           id="path3651"
           sodipodi:nodetypes="cscc"
           inkscape:connector-curvature="0" />
        <path
           style="fill:#522e0b;fill-opacity:1;stroke:none"
           d="m 256.4983,374.80797 c 0,7.19731 -5.54772,14.53552 -13.04818,14.53552 -7.50043,0 -15.17848,-8.8419 -15.17848,-16.03919 0,-7.19727 7.14546,-9.52326 14.64591,-9.52326 7.50043,0 13.58075,3.82966 13.58075,11.02693 z"
           id="path3754"
           sodipodi:nodetypes="csssc"
           inkscape:connector-curvature="0" />
        <path
           sodipodi:nodetypes="csssc"
           id="path3756"
           d="m 255.08409,374.84263 c 0,5.60458 -4.73266,11.31888 -11.13116,11.31888 -6.39848,0 -12.94848,-6.88523 -12.94848,-12.48979 0,-5.60455 6.09566,-7.41581 12.49415,-7.41581 6.39848,0 11.58549,2.98218 11.58549,8.58672 z"
           style="fill:#000000;fill-opacity:1;stroke:none"
           inkscape:connector-curvature="0" />
        <path
           sodipodi:type="arc"
           style="fill:#ffffff;fill-opacity:1;stroke:none"
           id="path3758"
           sodipodi:cx="301.58105"
           sodipodi:cy="420.20871"
           sodipodi:rx="2.8284271"
           sodipodi:ry="2.8284271"
           d="m 304.40948,420.20871 c 0,1.5621 -1.26633,2.82843 -2.82843,2.82843 -1.56209,0 -2.82842,-1.26633 -2.82842,-2.82843 0,-1.5621 1.26633,-2.82843 2.82842,-2.82843 1.5621,0 2.82843,1.26633 2.82843,2.82843 z"
           transform="matrix(0.74999999,0,0,0.74999999,23.284352,61.991521)" />
        <path
           sodipodi:nodetypes="csssc"
           id="path3771"
           d="m 348.92996,337.70698 c 5.2366,9.83143 3.46755,23.6415 -6.14263,28.76025 -9.61018,5.11875 -25.88112,-1.71925 -31.11772,-11.55069 -5.2366,-9.83142 2.95453,-18.47819 12.33659,-24.00395 13.36018,-7.86876 19.68715,-3.03704 24.92376,6.79439 z"
           style="fill:#150a00;fill-opacity:1;stroke:none"
           inkscape:connector-curvature="0" />
        <path
           style="fill:#1d140b;fill-opacity:1;stroke:none"
           d="m 347.90735,338.44604 c 4.9057,9.21018 3.05947,22.24822 -6.19892,27.1796 -9.25839,4.93137 -24.76268,-1.33522 -29.66838,-10.54541 -4.90569,-9.21015 2.47825,-16.86432 11.5875,-22.06602 17.27374,-9.8639 19.37411,-3.77834 24.2798,5.43183 z"
           id="path3773"
           sodipodi:nodetypes="csssc"
           inkscape:connector-curvature="0" />
        <path
           sodipodi:nodetypes="csssc"
           id="path3775"
           d="m 348.44199,339.44979 c 4.64097,8.71317 2.87177,21.05968 -5.91757,25.74121 -8.78933,4.68154 -23.48824,-1.23023 -28.12921,-9.94341 -4.64096,-8.71314 2.34381,-15.92251 10.64686,-21.42054 11.78933,-7.80654 18.75895,-3.09042 23.39992,5.62274 z"
           style="fill:#281400;fill-opacity:1;stroke:none"
           inkscape:connector-curvature="0" />
        <path
           style="fill:#361b00;fill-opacity:1;stroke:none"
           d="m 345.99523,339.64223 c 3.87989,7.28429 2.1153,17.75812 -5.61866,21.87753 -7.73394,4.1194 -20.41749,-0.61241 -24.29738,-7.89668 -3.87988,-7.28426 2.32496,-13.06039 9.34312,-18.3072 10.35894,-7.7444 16.69304,-2.9579 20.57292,4.32635 z"
           id="path3777"
           sodipodi:nodetypes="csssc"
           inkscape:connector-curvature="0" />
        <path
           sodipodi:nodetypes="csssc"
           id="path3779"
           d="m 344.39535,340.36109 c 3.38354,6.3524 1.93685,15.4372 -4.68311,18.96325 -6.61993,3.52603 -17.55331,-0.66836 -20.93683,-7.02074 -3.38352,-6.35236 2.7989,-10.35832 8.44959,-15.2905 7.61994,-6.65103 13.78684,-3.00437 17.17035,3.34799 z"
           style="fill:#522e0b;fill-opacity:1;stroke:none"
           inkscape:connector-curvature="0" />
        <path
           style="fill:#000000;fill-opacity:1;stroke:none"
           d="m 343.16346,341.05652 c 2.63477,4.94664 1.14404,12.215 -4.50332,15.223 -5.64734,3.008 -14.66524,0.0103 -17.30001,-4.93635 -2.63476,-4.94662 3.10133,-7.81146 7.54118,-12.41889 5.1749,-5.37022 11.4673,-3.6148 14.26215,2.13224 z"
           id="path3781"
           sodipodi:nodetypes="csssc"
           inkscape:connector-curvature="0" />
        <path
           transform="matrix(1.2135851,-0.64640254,0.64640254,1.2135851,-301.15471,31.419799)"
           d="m 304.40948,420.20871 c 0,1.5621 -1.26633,2.82843 -2.82843,2.82843 -1.56209,0 -2.82842,-1.26633 -2.82842,-2.82843 0,-1.5621 1.26633,-2.82843 2.82842,-2.82843 1.5621,0 2.82843,1.26633 2.82843,2.82843 z"
           sodipodi:ry="2.8284271"
           sodipodi:rx="2.8284271"
           sodipodi:cy="420.20871"
           sodipodi:cx="301.58105"
           id="path3783"
           style="fill:#ffffff;fill-opacity:1;stroke:none"
           sodipodi:type="arc" />
        <path
           sodipodi:type="arc"
           style="fill:#ffffff;fill-opacity:1;stroke:none"
           id="path3758-4"
           sodipodi:cx="301.58105"
           sodipodi:cy="420.20871"
           sodipodi:rx="2.8284271"
           sodipodi:ry="2.8284271"
           d="m 304.40948,420.20871 c 0,1.5621 -1.26633,2.82843 -2.82843,2.82843 -1.56209,0 -2.82842,-1.26633 -2.82842,-2.82843 0,-1.5621 1.26633,-2.82843 2.82842,-2.82843 1.5621,0 2.82843,1.26633 2.82843,2.82843 z"
           transform="matrix(1.5669417,0,0,1.125,-226.46113,-100.53649)" />
        <path
           sodipodi:nodetypes="ccccccccccccccccccccccssc"
           id="path3825"
           d="m 269.875,361.36218 c -32.97079,-3.42134 -107.86276,-4.41247 -108.375,26.5 -5.32258,-27.05145 7.04968,-28.94348 10.0052,-40.62132 -6.40799,2.57595 -16.51293,7.08482 -22.0052,15.62132 4.87109,-9.00376 16.1916,-19.99431 38.66421,-22.66789 -1.87361,-2.29722 -2.86519,-2.48651 -5.03921,-3.58211 4.5,0.0257 6.60355,2.73879 11.10355,4.37132 1.15817,-4.93028 0.52145,-4.82965 0.0214,-6.99632 7.09297,1.04271 12.68365,3.97735 18.88909,6.20343 -0.62482,-2.72514 -1.16182,-3.41025 -3.26409,-4.95343 6.30855,1.12445 8.06252,2.32202 13.70971,5.09987 -1.03301,-4.84928 -5.36666,-7.51157 -10.45971,-8.59987 8.56002,0.17405 15.14843,6.76262 20.80698,10.16053 -0.43288,-1.41667 -2.96881,-5.61886 -5.30698,-7.03553 4.6051,1.00187 10.01802,4.8945 15.22487,7.09987 0.3721,-2.05651 -0.64763,-4.71663 -4.34987,-6.47487 5.73185,0.73926 10.80283,3.72341 16.21599,5.73744 -0.4708,-1.12749 -0.15051,-2.75973 -2.59099,-4.73744 2.42843,0.64315 2.04786,0.54077 3.7955,1.5455 -0.65352,-3.06432 -1.46088,-2.86965 -1.97811,-4.3165 1.30779,0.51193 1.99261,0.64236 3.44149,1.67894 0.53024,-2.13766 0.82792,-1.85435 -0.4519,-3.56543 3.34878,2.64384 2.21379,1.46214 5.39124,5.91637 3.95611,5.54577 12.92161,24.27711 6.55178,23.61612 l 5e-5,0 z"
           style="fill:#9e560f;fill-opacity:1;stroke:none"
           inkscape:connector-curvature="0" />
        <path
           style="fill:#743d0e;fill-opacity:1;stroke:none"
           d="m 269.875,361.36218 c -32.97079,-3.42134 -107.86276,-4.41247 -108.375,26.5 -5.32258,-27.05145 13.86916,-36.4467 13.86916,-36.4467 3.50967,-0.61571 1.82274,-3.75273 -1.7972,-3.89734 2.48663,-3.26467 15.70101,-0.0509 15.70101,-0.0509 0,0 -1.83047,-3.32879 -5.64277,-5.45343 4.28685,0.39771 9.81806,0.23205 11.51256,2.21967 0.55591,-2.10853 4.22067,-3.44586 1.97851,-6.06954 5.19372,0.24252 23.13693,6.75153 23.13693,6.75153 0,0 2.57805,-2.15648 -0.44086,-4.08732 1.18547,-2.03085 17.05713,3.82936 16.58793,4.76776 0,0 1.14263,-4.2602 0.6627,-4.16421 1.17214,-0.46885 13.80987,4.51349 12.625,4.98744 0,0 -1.75,-6.63388 -1.75,-6.63388 0,0 10.70236,8.58624 10.70236,8.58624 0.93548,-1.15674 0.41655,-5.66932 -1.53878,-5.88237 2.78794,-1.39397 8.86588,9.21979 8.92157,11.75521 2.19071,-2.99259 0.67811,-6.25268 -5.93198,-18.41467 0,0 18.02141,24.98693 9.77881,25.53249 l 5e-5,0 z"
           id="path3827"
           sodipodi:nodetypes="cccccccccccccccccccc"
           inkscape:connector-curvature="0" />
        <path
           sodipodi:nodetypes="ccccccccccccccccss"
           id="path3653"
           d="M 268.72595,362.62735 C 235.74884,359.3609 162.01224,356.94971 161.5,387.86218 c -5.32258,-27.05145 33.11916,-28.4467 33.11916,-28.4467 -6.06746,-1.11861 -16.09636,-0.40351 -21.50431,1.26687 9.5081,-3.47852 21.13977,-4.41949 33.15812,-4.21511 -4.02087,-2.22811 -8.41285,-2.22961 -12.64277,-3.20343 11.08752,-0.93281 22.17504,0.0699 33.26256,1.46967 -3.11425,-2.20327 -7.36898,-3.26607 -11.63456,-4.31801 10.85355,0.50092 19.25899,1.5863 27.55914,4.41268 -2.69302,-3.95753 -7.68355,-4.1207 -8.7431,-4.56803 6.19888,0.65526 14.61708,4.09186 17.24373,4.67158 0,0 -2.875,-5.51256 -2.875,-5.51256 0,0 8.75,4.86612 8.75,4.86612 0,0 -0.54764,-4.66376 -0.54764,-4.66376 0.32579,-0.1086 6.5336,7.74343 6.15317,7.87024 0,0 -0.36395,-4.21707 -0.36395,-4.21707 2.42123,4.61091 11.11599,2.94061 9.38501,7.73394 -0.63737,1.76498 -1.81296,1.74559 -3.09361,1.61874 z"
           style="fill:#371e12;fill-opacity:1;stroke:none"
           inkscape:connector-curvature="0" />
        <path
           sodipodi:nodetypes="ccccccccccccccccccccccccc"
           id="path3655"
           d="m 290.25,355.36218 c -5.74344,4.83391 -3.31802,-6.16607 -6.56802,-15.08274 l 4.77513,5.17893 0.16789,-7.09619 1.22487,7.09251 0.90013,-11.21751 0.625,7.75 1.625,-12 1.125,6.5 2.375,-12.375 1.75,5.125 c 4.137,-5.07715 6.98067,-7.83312 7.27145,-14.59315 1.88405,3.09488 3.14014,3.98995 2.375,6.75368 9.79327,-9.4936 18.19131,-18.91123 27.33578,-31 l -0.43934,6.06066 c 2.54837,-3.93279 3.68603,-8.92741 7.21079,-13.18566 l -0.77145,9.05698 c 3.37546,-5.58333 7.4135,-13.64154 13.08579,-19.22487 -0.86319,2.4658 -0.23173,3.67405 0.12132,5.83579 21.531,-0.72954 33.79943,-1.56171 53.63604,-3.58211 l -17.43198,5.9179 c 7.95211,1.72079 23.73204,0.8674 32.32107,1.31433 l -17.85356,2.4179 c 14.70227,12.37089 21.5421,21.73593 31.58579,37.03248 -47.99142,-45.33731 -116.01476,9.13437 -146.4467,33.32107 z"
           style="fill:#9e560f;fill-opacity:1;stroke:none"
           inkscape:connector-curvature="0" />
        <path
           style="fill:#743d0e;fill-opacity:1;stroke:none"
           d="m 290.25,355.36218 c -5.74344,4.83391 -3.31802,-6.16607 -6.56802,-15.08274 l 4.40013,9.67893 0.79289,-3.59619 0.97487,2.34251 0.77513,-4.09251 0.875,2.75 1.5,-10.375 0.875,5.25 3,-12 1.5,4.375 c 4.137,-5.07715 7.20922,-7.55127 7.5,-14.3113 1.88405,3.09488 3.4937,4.34351 2.72856,7.10724 9.79327,-9.4936 14.30222,-14.66859 23.44669,-26.75736 l -0.79289,14.54594 c 2.19481,-7.11477 6.51445,-16.35203 10.74632,-18.84251 l -3.24632,15.06738 c 1.96124,-7.35109 4.93862,-16.46996 15.20711,-24.88172 -0.86319,2.4658 -1.9995,11.09867 -1.64645,13.26041 3.14622,-5.32573 11.52557,-10.04699 27.82664,-14.18871 l 6.2561,7.68567 18.00304,-3.6924 c 14.70227,12.37089 22.24921,17.13974 32.2929,32.43629 -47.99142,-45.33731 -116.01476,9.13437 -146.4467,33.32107 z"
           id="path3657"
           sodipodi:nodetypes="cccccccccccccccccccccccc"
           inkscape:connector-curvature="0" />
        <path
           sodipodi:nodetypes="ccccccccccccscscccccsccc"
           id="path3659"
           d="m 289.75,356.36218 c -5.74344,4.83391 -2.06802,-0.16607 -5.31802,-9.08274 l 3.40013,6.80393 1.54289,-4.22119 0.97487,2.34251 -0.22487,-4.59251 1.875,3.25 1,-4.375 2.88388,1.80698 c -1.12117,-2.09535 -0.0768,-4.6238 1.11612,-7.18198 0.38994,2.07668 -0.88028,5.26012 2.04289,5.64797 4.137,-5.07715 4.54133,-10.32424 6.83211,-15.70927 -1.65148,11.40338 -1.74703,13.80167 4.55178,3.33211 3.14004,-5.21921 4.73116,-7.54727 19.12347,-24.23223 -1.78849,2.88815 -22.83564,25.76593 0.95711,10.79594 4.05415,-2.5508 3.63606,-3.88735 5.62132,-8.21751 -1.28225,3.85385 -0.91871,5.45849 0.87868,6.19238 2.71098,-6.97635 2.47442,-8.93416 11.70711,-16.88172 -7.05037,7.7691 -4.34937,10.81466 -1.52145,11.38541 3.14622,-5.32573 10.02557,-12.04699 26.32664,-16.18871 -14.56147,7.09793 -4.78307,9.86441 -0.84898,7.21232 7.03913,-4.74529 21.11557,-8.80296 29.85812,-9.84405 -9.51614,5.12305 24.12421,12.13974 34.1679,27.43629 C 388.70528,276.7038 320.18194,332.17548 289.75,356.36218 z"
           style="fill:#371e12;fill-opacity:1;stroke:none"
           inkscape:connector-curvature="0" />
        <path
           style="fill:#9e560f;fill-opacity:1;stroke:none"
           d="m 228.96403,840.65656 c 13.63131,-10.9306 14.32431,-20.11241 14.84924,-20.5061 0,0 9.1724,10.49739 19.09188,9.8995 -11.94373,-24.25951 -14.6836,-72.57127 -10.74264,-89.60408 -0.91754,15.38796 5.1326,32.76885 12.29315,47.92894 3.58027,7.58004 1.78129,-5.90122 3.06329,-15.51465 15.04739,39.88072 10.94254,58.604 10.94254,58.604 0,0 14.07814,-34.70551 16.38478,-53.08326 l 22.5061,41.06245 2.12132,-22.62742 26.87006,40.30508 -0.70711,-21.9203 19.09188,9.89949 0,-14.14213 6.36396,0.7071 c 4.05179,8.76965 2.84508,71.48341 -37.47666,69.29647 -29.98819,-1.62648 -35.34371,-11.20803 -59.39696,-2.82844 -8.56522,-5.42528 -14.33712,-2.47057 -21.21321,-2.82842 -4.01362,-7.28671 -17.5774,-12.0859 -26.16295,-15.55635 7.18947,-3.66866 3.88195,-10.26136 2.12133,-19.09188 z"
           id="path3660"
           sodipodi:nodetypes="ccccsccccccccccscccc"
           inkscape:connector-curvature="0" />
        <path
           style="fill:url(#radialGradient3701);fill-opacity:1;stroke:none"
           d="m 214.46834,675.54713 0.7071,3.18198 C 227.77939,635.08069 294.73823,540.57583 403.6194,476.14302 l -0.35356,-1.76776 C 302.73723,536.53705 232.5901,623.87407 214.46834,675.54713 z"
           id="path3693"
           sodipodi:nodetypes="ccccc"
           inkscape:connector-curvature="0" />
      </g>
    </g>
    <text
       xml:space="preserve"
       style="font-size:40px;font-style:normal;font-weight:normal;line-height:125%;letter-spacing:0px;word-spacing:0px;fill:#000000;fill-opacity:1;stroke:none;font-family:Sketchetik Light;-inkscape-font-specification:Sketchetik Light"
       x="569"
       y="543.36218"
       id="text3188"
       sodipodi:linespacing="125%"><tspan
         sodipodi:role="line"
         id="tspan3190"
         x="569"
         y="543.36218"
         style="font-size:24px">Enter new tasks here.</tspan></text>
    <text
       xml:space="preserve"
       style="font-size:40px;font-style:normal;font-weight:normal;line-height:125%;letter-spacing:0px;word-spacing:0px;fill:#000000;fill-opacity:1;stroke:none;font-family:Sketchetik Light;-inkscape-font-specification:Sketchetik Light"
       x="110"
       y="514.36218"
       id="text3197"
       sodipodi:linespacing="125%"><tspan
         sodipodi:role="line"
         id="tspan3199"
         x="110"
         y="514.36218"
         style="font-size:24px">Start with a few new todo's.</tspan></text>
  </g>
</svg>
